<svg xmlns="http://www.w3.org/2000/svg" viewBox="357.48 -254.52 1525.09 1525.089"><defs><style>.a{fill:none;stroke:#c49d42;stroke-miterlimit:10;stroke-width:85.039px;}</style></defs><g transform="translate(-189.974 -211.975)"><path class="a" d="M1280-.025C882.341-.025,559.974,322.341,559.974,720S882.34,1440.025,1280,1440.025,2000.024,1117.66,2000.024,720,1677.66-.025,1280-.025Zm480.339,374.194L1595.934,1160.19c-7.713,36.884-50.977,53.45-81.354,31.152l-248.23-182.208-126.514,129.178c-22.2,22.671-60.56,13.495-70.1-16.772l-91.32-289.769-244.7-72.257c-32.106-9.479-34-54.237-2.806-66.393l962.946-375.25C1730.51,303.589,1768.39,335.667,1760.339,374.169Z" transform="translate(30)"/><path class="a" d="M1559.258,473.66,1031.064,801.251a24.029,24.029,0,0,0-10.285,27.544l70.852,228.3a4.639,4.639,0,0,0,9.04-.856l17.221-153.084a24.024,24.024,0,0,1,7.959-15.315L1573.134,492.31C1583.842,482.842,1571.4,466.121,1559.258,473.66Z" transform="translate(30)"/></g></svg>