<?xml version="1.0" encoding="utf-8"?>
<!-- Generator: Adobe Illustrator 16.0.0, SVG Export Plug-In . SVG Version: 6.00 Build 0)  -->
<!DOCTYPE svg PUBLIC "-//W3C//DTD SVG 1.1//EN" "http://www.w3.org/Graphics/SVG/1.1/DTD/svg11.dtd">
<svg version="1.1" id="Capa_1" preserveAspectRatio="none" xmlns="http://www.w3.org/2000/svg" xmlns:xlink="http://www.w3.org/1999/xlink" x="0px" y="0px"
	 width="16382.839px" height="7086.609px" viewBox="0 0 16382.839 7086.609" enable-background="new 0 0 16382.839 7086.609"
	 xml:space="preserve">
<g>
	<g>
		<path fill="none" stroke="#ffffff" stroke-width="170.0787" stroke-miterlimit="10" d="M8649.521,3576.281
			c-10.852-18.17-77.978-164.031-400.994-463.83c-338.156-313.931-292.73-262.954,114.57-805.772
			c248.065-330.585,347.241-532.469,316.202-618.776c-29.525-82.268-211.98-60.565-211.98-60.565l-606.663,3.534
			c0,0-44.919-6.057-78.482,13.879c-32.554,19.683-53.498,65.107-53.498,65.107s-96.149,255.89-224.346,473.419
			c-270.273,459.035-378.534,483.262-422.696,454.746c-102.708-66.37-76.968-266.992-76.968-409.321
			c0-444.903,67.379-630.384-131.478-678.332c-66.118-15.899-114.57-26.498-283.396-28.263
			c-216.522-2.272-399.984,0.756-503.702,51.48c-69.146,33.816-122.393,109.27-89.838,113.56
			c40.125,5.299,130.973,24.479,179.173,90.091c62.331,84.539,60.06,274.816,60.06,274.816s35.835,523.638-83.529,588.746
			c-82.016,44.667-194.314-46.434-435.314-463.073c-123.402-213.241-216.774-449.194-216.774-449.194s-17.918-43.908-49.967-67.378
			c-38.862-28.517-93.372-37.601-93.372-37.601l-576.885,3.533c0,0-86.558,2.523-118.354,40.124
			c-28.264,33.564-2.271,102.709-2.271,102.709s451.717,1056.613,962.989,1589.336c469.13,488.309,1001.6,456.258,1001.6,456.258
			h241.252c0,0,72.932-8.075,110.027-48.199c34.32-36.844,33.058-105.989,33.058-105.989s-4.795-323.773,145.61-371.468
			c148.133-46.938,338.409,312.921,540.04,451.464c152.424,104.729,268.256,81.764,268.256,81.764l539.285-7.571
			C8501.137,3815.513,8783.27,3798.102,8649.521,3576.281z"/>
	</g>
</g>
</svg>
