<svg xmlns="http://www.w3.org/2000/svg" viewBox="623.314 381.327 540.362 540.347"><defs><style>.a{fill:none;stroke:#fff;stroke-miterlimit:10;stroke-width:28.347px;}</style></defs><path class="a" d="M260.266,0C121.455,0,8.533,112.921,8.533,251.734A251.477,251.477,0,0,0,41.779,376.747L.435,500.77A8.53,8.53,0,0,0,10.7,511.718l135.4-35.626a252.391,252.391,0,0,0,114.167,27.374C399.079,503.466,512,390.545,512,251.734S399.079,0,260.266,0ZM417.348,366.037l-15,15.01c-18.943,18.944-40.081,28.553-62.8,28.553h0c-30.635,0-63.668-17.493-98.159-51.994l-86.989-86.979c-27.2-27.2-43.921-53.632-49.689-78.558-7-30.269,1.835-57.993,26.257-82.407l15.011-15.01a32.336,32.336,0,0,1,37.351-5.623c22.716,12.023,46.25,51.413,48.861,55.867,4.711,8.252,6.152,16.785,4.122,24.1a22.275,22.275,0,0,1-10.138,13.243c-6.9,5.769-14.977,12.954-16.4,14.78-8.67,12.791-7.68,22.613,3.49,33.792L281.2,298.752c11.264,11.272,20.915,12.2,33.911,3.4,1.716-1.34,8.893-9.42,14.661-16.315,4.309-7.125,11.366-11.024,19.95-11.024a35.341,35.341,0,0,1,17.3,4.949c4.54,2.671,43.938,26.2,55.954,48.913A31.633,31.633,0,0,1,417.348,366.037Z" transform="translate(637.503 395.5)"/></svg>