<svg id="Capa_1" data-name="Capa 1" xmlns="http://www.w3.org/2000/svg" viewBox="0 0 612 535.5"><title>icon-prod-video</title><g id="_3" data-name="3"><path d="M573.75,267.75L459,344.25a76,76,0,0,0-26.89-57.8C471,263,497.25,220.82,497.25,172.13a133.88,133.88,0,1,0-227.38,95.63H199.72c18.32-20.33,29.78-47,29.78-76.5a114.75,114.75,0,0,0-229.5,0c0,34.58,15.63,65.22,39.82,86.25C16.2,290.53,0,315.37,0,344.25v153a76.5,76.5,0,0,0,76.5,76.5h306a76.5,76.5,0,0,0,76.5-76.5l114.75,76.5A38.24,38.24,0,0,0,612,535.5V306A38.24,38.24,0,0,0,573.75,267.75Zm-459,0a76.5,76.5,0,1,1,76.5-76.5A76.5,76.5,0,0,1,114.75,267.75ZM363.38,268a95.83,95.83,0,1,1,95.83-95.83A95.84,95.84,0,0,1,363.38,268Z" transform="translate(0 -38.25)"/></g></svg>