<svg id="Capa_1" data-name="Capa 1" xmlns="http://www.w3.org/2000/svg" viewBox="0 0 595.28 594.89"><defs><style>.cls-1{fill:#010002;}</style></defs><title>icon-phone</title><path class="cls-1" d="M595,478.18q1.89,14.5-8.82,25.21l-83.81,83.18a47.17,47.17,0,0,1-14.81,10.71,61.08,61.08,0,0,1-18,5.67c-0.42,0-1.68.11-3.79,0.32s-4.83.32-8.19,0.32q-12,0-38.76-4.1t-65.54-20.17q-38.76-16.07-87.91-48.21T160.8,442.89q-44.11-43.48-73.1-83.18T41.07,286.29Q23.42,252.57,14.6,225.16t-12-47.26Q-0.52,158,.1,146.7t0.63-12.6a61.25,61.25,0,0,1,5.67-18,47.23,47.23,0,0,1,10.71-14.81l83.81-83.81q8.82-8.82,20.17-8.82a23.51,23.51,0,0,1,14.49,4.73,43.81,43.81,0,0,1,10.71,11.66L213.74,153a30.67,30.67,0,0,1,3.15,22.06,39.28,39.28,0,0,1-10.71,20.17L175.3,226.11a10.51,10.51,0,0,0-2.21,4.1,15.55,15.55,0,0,0-.95,4.73q2.52,13.23,11.34,30.25Q191.05,280.3,206.8,302t44.74,50.1q28.36,29,50.42,45.06t36.87,23.63q14.81,7.56,22.69,9.13l7.88,1.58a15,15,0,0,0,4.1-.95,10.54,10.54,0,0,0,4.1-2.2l35.92-36.55A38.6,38.6,0,0,1,440,381.76q10.71,0,17,3.78h0.63l121.62,71.84Q592.48,465.58,595,478.18Z" transform="translate(0 -8.69)"/></svg>