<svg id="Capa_1" data-name="Capa 1" xmlns="http://www.w3.org/2000/svg" viewBox="0 0 121.8 107.19"><title>icon-chart</title><path d="M121.8,109.62V21.93a4.87,4.87,0,0,0-4.87-4.87H92.57a4.87,4.87,0,0,0-4.87,4.87v87.7a4.87,4.87,0,0,0,4.87,4.87h24.36A4.87,4.87,0,0,0,121.8,109.62Z" transform="translate(0 -7.31)"/><path d="M46.29,114.5h26.8A4.87,4.87,0,0,0,78,109.62V12.18a4.87,4.87,0,0,0-4.87-4.87H46.29a4.87,4.87,0,0,0-4.87,4.87v97.44A4.87,4.87,0,0,0,46.29,114.5Z" transform="translate(0 -7.31)"/><path d="M4.87,46.29A4.87,4.87,0,0,0,0,51.16v58.46a4.87,4.87,0,0,0,4.87,4.87H29.23a4.87,4.87,0,0,0,4.87-4.87V51.16a4.87,4.87,0,0,0-4.87-4.87H4.87Z" transform="translate(0 -7.31)"/></svg>