<svg id="Capa_1" data-name="Capa 1" xmlns="http://www.w3.org/2000/svg" viewBox="0 0 595.28 595.28"><title>icon-find</title><path d="M588.5,564.27L443.22,419a249.38,249.38,0,0,0,57.87-159.94C501.09,120.9,388.69,8.5,250.55,8.5S0,120.9,0,259.05,112.39,509.59,250.55,509.59a249.4,249.4,0,0,0,159.94-57.86L555.77,597A23.14,23.14,0,1,0,588.5,564.27ZM46.29,259.05c0-112.63,91.63-204.27,204.26-204.27S454.8,146.42,454.8,259.05,363.17,463.3,250.55,463.3,46.29,371.68,46.29,259.05Z" transform="translate(0 -8.5)"/></svg>