<svg id="Capa_1" data-name="Capa 1" xmlns="http://www.w3.org/2000/svg" viewBox="0 0 468.02 512"><path class="cls-1" d="M304.76,0H207.23C105.09,0,22,83.08,22,185.21v87.85A185.56,185.56,0,0,0,139,445.3v57a9.75,9.75,0,0,0,16.29,7.22l56.54-51.21h92.93C406.9,458.27,490,375.18,490,273.06V185.21C490,83.08,406.9,0,304.76,0ZM470.5,273.06c0,91.37-74.35,165.71-165.75,165.71H208.06a9.73,9.73,0,0,0-6.54,2.53l-43,39V438.54a9.72,9.72,0,0,0-6.5-9.18,166.06,166.06,0,0,1-110.5-156.3V185.21c0-91.37,74.36-165.71,165.75-165.71h97.52c91.4,0,165.75,74.34,165.75,165.71v87.85Z" transform="translate(-21.99)"/><path class="cls-1" d="M384.86,297.32l-59.93-38.92A29.18,29.18,0,0,0,284.47,267l-2.82,4.33c-25.94-8.57-54.53-19.52-71.66-69.08l7.09-6.16h0a29.3,29.3,0,0,0,2.87-41.27l-46.88-53.93a9.76,9.76,0,0,0-13.76-1l-29.44,25.58c-25.82,22.45-13.76,55.64-9.79,66.56a9.73,9.73,0,0,0,.64,1.41c1,1.83,25.47,45.46,64.95,85.67,39.64,40.38,111.19,77.66,113.39,78.74a48.79,48.79,0,0,0,67.43-14.33l21.24-32.7A9.78,9.78,0,0,0,384.86,297.32ZM350.13,332.9c-8.79,13.53-26.94,17.37-41.27,8.13-0.71-.37-71.8-37.39-109.27-75.56-35-35.68-58.28-75.31-61.45-80.84-7.72-21.66-6.36-35,4.52-44.42L164.75,121l40.48,46.57a9.65,9.65,0,0,1-.94,13.76l-12,10.39A9.74,9.74,0,0,0,189.41,202c20.4,66.28,60.06,79.3,89,88.81l4.22,1.39a9.72,9.72,0,0,0,11.26-3.93l6.91-10.65a9.69,9.69,0,0,1,13.49-2.84l51.75,33.61Z" transform="translate(-21.99)"/><path class="cls-1" d="M278.25,158.41a9.75,9.75,0,1,0-5.34,18.75,44.12,44.12,0,0,1,30.2,30.27,9.76,9.76,0,0,0,9.38,7.11,10,10,0,0,0,2.65-.36,9.75,9.75,0,0,0,6.74-12A63.74,63.74,0,0,0,278.25,158.41Z" transform="translate(-21.99)"/><path class="cls-1" d="M352.46,216.64a10,10,0,0,0,2.65-.36,9.75,9.75,0,0,0,6.74-12,123.82,123.82,0,0,0-84.72-84.92,9.75,9.75,0,0,0-5.33,18.76,104.18,104.18,0,0,1,71.28,71.45A9.76,9.76,0,0,0,352.46,216.64Z" transform="translate(-21.99)"/><path class="cls-1" d="M272.92,73.93a9.75,9.75,0,0,0-5.34,18.76A176.51,176.51,0,0,1,388.37,213.75a9.76,9.76,0,0,0,9.38,7.11,10,10,0,0,0,2.65-.36,9.76,9.76,0,0,0,6.74-12A196.16,196.16,0,0,0,272.92,73.93Z" transform="translate(-21.99)"/></svg>