<svg id="Layer_1" data-name="Layer 1" xmlns="http://www.w3.org/2000/svg" viewBox="0 0 512 511.99"><path class="cls-1" d="M512,34.88A34.68,34.68,0,0,0,477.13,0a35,35,0,0,0-24.71,10.31c-2.8,2.8-7.89,8.85-10.68,12.21a8.29,8.29,0,0,0,12.76,10.6c4.36-5.26,8-9.4,9.65-11.07a18.47,18.47,0,0,1,13-5.46h0.08a18.09,18.09,0,0,1,18.14,18.21,18.47,18.47,0,0,1-5.46,13C486.82,51,476.06,59.53,460.64,70.3a52.55,52.55,0,0,0-45.37-26.1H293.81a61,61,0,0,0-43.41,18L7.61,305a26,26,0,0,0,0,36.76L170.28,504.39a26,26,0,0,0,36.76,0L449.83,261.6a61,61,0,0,0,18-43.41V96.73a52.55,52.55,0,0,0-1.05-10.47c17.55-12.08,30.43-22.18,34.93-26.67A34.94,34.94,0,0,0,512,34.88ZM451.22,218.2a44.5,44.5,0,0,1-13.12,31.67L195.31,492.66a9.41,9.41,0,0,1-13.29,0L19.34,330a9.4,9.4,0,0,1,0-13.29L262.14,73.91a44.5,44.5,0,0,1,31.67-13.12H415.27a36,36,0,0,1,31.62,18.86c-9.8,6.49-20.77,13.39-32.41,20.17-0.36-.4-0.73-0.79-1.12-1.18a34.88,34.88,0,1,0,9,15.75c10.12-5.89,19.84-11.92,28.82-17.74,0,0,0,.05,0,0.08V218.2h0ZM381.32,127a8.29,8.29,0,0,0,11.14,3.68q7.29-3.67,14.5-7.6a18.25,18.25,0,1,1-7.7-14.69q-7,3.83-14.26,7.47A8.29,8.29,0,0,0,381.32,127Z" transform="translate(0 -0.01)"/><path class="cls-1" d="M247.16,169a8.29,8.29,0,0,0-8.29,8.29V352.44a8.29,8.29,0,1,0,16.59,0V177.26A8.29,8.29,0,0,0,247.16,169Z" transform="translate(0 -0.01)"/><path class="cls-1" d="M209.23,240.21a34.83,34.83,0,1,0,10.21,24.63A34.87,34.87,0,0,0,209.23,240.21ZM197.5,277.75a18.25,18.25,0,1,1,5.35-12.9A18.27,18.27,0,0,1,197.5,277.75Z" transform="translate(0 -0.01)"/><path class="cls-1" d="M334.36,240.21a34.82,34.82,0,1,0,0,49.27A34.87,34.87,0,0,0,334.36,240.21Zm-11.73,37.54a18.24,18.24,0,1,1,0-25.81A18.27,18.27,0,0,1,322.63,277.75Z" transform="translate(0 -0.01)"/></svg>