<svg id="Capa_1" data-name="Capa 1" xmlns="http://www.w3.org/2000/svg" viewBox="0 0 438.53 438.54"><title>icon-twitter</title><path d="M414.41,24.12Q390.29,0,356.31,0H82.23q-34,0-58.1,24.12T0,82.23V356.31q0,34,24.12,58.1t58.1,24.13H356.31q34,0,58.1-24.13t24.13-58.1V82.23Q438.53,48.25,414.41,24.12ZM335.47,168.73a75.65,75.65,0,0,1,.29,7.71,172.75,172.75,0,0,1-28.41,94.36A180,180,0,0,1,273,309.92q-20,17-48,27.12a174.56,174.56,0,0,1-60,10.14A168.26,168.26,0,0,1,73.1,320.34a115.61,115.61,0,0,0,14.27.86q41.4,0,74.52-25.7a56.89,56.89,0,0,1-34.69-12,60.93,60.93,0,0,1-21.27-29.69A80.42,80.42,0,0,0,117.07,255a55.79,55.79,0,0,0,14.56-2.28A60,60,0,0,1,96.51,232a57,57,0,0,1-14.28-38.11v-0.57q15.13,7.13,28.55,7.42-26-17.42-26-50a59.38,59.38,0,0,1,8.28-30.26,169.94,169.94,0,0,0,54.82,44.25A169.75,169.75,0,0,0,217,183.3a55.09,55.09,0,0,1-1.43-13.7,60,60,0,0,1,60-60q26.27,0,43.69,18.85a119.25,119.25,0,0,0,38.26-14.56q-7.13,22-26.55,33.4a127.1,127.1,0,0,0,34.54-9.71A116.62,116.62,0,0,1,335.47,168.73Z" transform="translate(0)"/></svg>