<svg id="Layer_1" data-name="Layer 1" xmlns="http://www.w3.org/2000/svg" viewBox="0 0 595.28 595.28"><defs><style>.cls-1{fill:#fff;}</style></defs><title>icon-zoom</title><path class="cls-1" d="M588.24,562.73L446.46,421A252.05,252.05,0,0,0,252,8.5,252,252,0,0,0,73.82,438.76,252.07,252.07,0,0,0,412.45,455L554.23,596.74A24,24,0,1,0,588.24,562.73ZM252,464.49C139.58,464.49,48.09,373,48.09,260.54S139.58,56.59,252,56.59,456,148.08,456,260.54a203.29,203.29,0,0,1-59.28,143.61c-0.18.17-.38,0.33-0.56,0.51s-0.33.38-.5,0.56A203.3,203.3,0,0,1,252,464.49Z" transform="translate(0 -8.5)"/><path class="cls-1" d="M400.57,275.6a14.53,14.53,0,0,0,14.53-14.53v-8.87a14.53,14.53,0,0,0-14.53-14.53H270.06V107.17a14.53,14.53,0,0,0-14.53-14.53h-8.87a14.53,14.53,0,0,0-14.53,14.53V237.68H101.62a14.53,14.53,0,0,0-14.53,14.53v8.87a14.53,14.53,0,0,0,14.53,14.53H232.13V406.12a14.53,14.53,0,0,0,14.53,14.53h8.87a14.53,14.53,0,0,0,14.53-14.53V275.6H400.57Z" transform="translate(0 -8.5)"/></svg>