<svg id="Capa_1" data-name="Capa 1" xmlns="http://www.w3.org/2000/svg" viewBox="0 0 595.28 595.28"><path class="cls-1" d="M329.72,336.57C320.18,331,306.92,331,296.14,331H260.75v72.92h32.48c12,0,27.36.86,37.73-6.42,9.52-6.41,14.91-19,14.91-31C345.86,355.44,339.24,342.14,329.72,336.57ZM316.37,274.3c7.87-6,12-16.69,12-26.53,0-10.7-5-21-14.08-26.52-9.53-5.56-26.95-4.27-38.14-4.27H260.75v64.18h20.39C292.75,281.14,306.43,282,316.37,274.3ZM490.64,8.5h-386A104.63,104.63,0,0,0,0,113.14v386A104.64,104.64,0,0,0,104.63,603.78h386A104.65,104.65,0,0,0,595.28,499.14v-386A104.64,104.64,0,0,0,490.64,8.5ZM313.79,458.28H192.18V164.77H325c38.49,0,74,24.5,74,67.71,0,33.37-18.63,56.22-42.39,63.32v0.86c35.23,7.28,60.4,26.42,60.4,72.58C417.06,412,388,458.28,313.79,458.28Z" transform="translate(0 -8.5)"/></svg>