<svg id="Capa_1" data-name="Capa 1" xmlns="http://www.w3.org/2000/svg" viewBox="0 0 566.93 566.93"><title>order-ok</title><path d="M283.46,0C127.17,0,0,127.16,0,283.46S127.17,566.93,283.46,566.93,566.93,439.77,566.93,283.46,439.76,0,283.46,0Zm0,545.12C139.19,545.12,21.8,427.74,21.8,283.46S139.19,21.81,283.46,21.81,545.12,139.19,545.12,283.46,427.74,545.12,283.46,545.12Z" transform="translate(0)"/><path d="M417,167.2L249.48,355.7,148.54,275a10.9,10.9,0,0,0-13.62,17l109,87.22a10.91,10.91,0,0,0,15-1.28L433.35,181.68A10.9,10.9,0,0,0,417,167.2Z" transform="translate(0)"/></svg>