<?xml version="1.0" encoding="utf-8"?>
<!-- Generator: Adobe Illustrator 16.0.0, SVG Export Plug-In . SVG Version: 6.00 Build 0)  -->
<!DOCTYPE svg PUBLIC "-//W3C//DTD SVG 1.1//EN" "http://www.w3.org/Graphics/SVG/1.1/DTD/svg11.dtd">
<svg version="1.1" id="Capa_1" xmlns="http://www.w3.org/2000/svg" xmlns:xlink="http://www.w3.org/1999/xlink" x="0px" y="0px"
	 width="255.121px" height="141.73px" viewBox="0 0 255.121 141.73" enable-background="new 0 0 255.121 141.73"
	 xml:space="preserve">
<g>
	<g>
		<g>
			<path d="M111.911,86.485c-1.329,1.24-3.189,1.86-5.581,1.86l0,0c-1.122,0-2.155-0.147-3.1-0.502
				c-0.916-0.325-1.713-0.798-2.362-1.388c-0.649-0.591-1.151-1.329-1.506-2.156c-0.354-0.855-0.531-1.771-0.531-2.775h-7.677
				c0,2.126,0.413,3.986,1.24,5.61c0.827,1.624,1.919,2.982,3.307,4.045c1.388,1.093,2.982,1.89,4.813,2.451
				c1.831,0.59,3.72,0.855,5.728,0.855c2.185,0,4.222-0.295,6.112-0.886c1.89-0.59,3.514-1.476,4.902-2.627
				c1.388-1.152,2.451-2.569,3.248-4.252c0.768-1.684,1.182-3.603,1.182-5.758c0-1.152-0.148-2.244-0.414-3.308
				c-0.295-1.063-0.738-2.066-1.329-3.012c-0.62-0.944-1.417-1.771-2.392-2.539c-0.975-0.738-2.185-1.358-3.573-1.86
				c1.182-0.531,2.215-1.181,3.101-1.949c0.886-0.768,1.624-1.594,2.214-2.45c0.591-0.886,1.034-1.771,1.329-2.717
				c0.295-0.944,0.443-1.89,0.443-2.805c0-2.155-0.354-4.045-1.063-5.669c-0.709-1.624-1.713-2.982-3.012-4.075
				c-1.299-1.092-2.835-1.919-4.666-2.479c-1.89-0.591-3.897-0.856-6.083-0.856c-2.126,0-4.104,0.324-5.905,0.944
				c-1.801,0.62-3.336,1.506-4.636,2.628s-2.303,2.451-3.042,3.986s-1.092,3.219-1.092,5.02h7.677c0-1.004,0.177-1.89,0.532-2.657
				c0.354-0.798,0.856-1.477,1.476-2.008c0.62-0.562,1.388-1.004,2.244-1.3c0.856-0.295,1.801-0.472,2.805-0.472
				c2.362,0,4.104,0.62,5.256,1.83c1.151,1.211,1.712,2.923,1.712,5.108c0,1.063-0.147,2.008-0.473,2.864
				c-0.325,0.856-0.797,1.595-1.447,2.214c-0.649,0.62-1.476,1.093-2.421,1.447c-0.974,0.354-2.126,0.531-3.425,0.531h-4.547v6.054
				h4.547c1.299,0,2.48,0.147,3.514,0.442c1.033,0.296,1.919,0.738,2.657,1.388c0.738,0.62,1.299,1.418,1.713,2.362
				c0.384,0.945,0.59,2.067,0.59,3.366C113.978,83.385,113.298,85.216,111.911,86.485z"/>
			<path d="M101.074,126.878c-19.281-9.153-33.129-27.903-35.226-50.107H56.99c3.012,36.378,33.425,64.96,70.57,64.96
				c1.328,0,2.599-0.118,3.897-0.207l-22.5-22.529L101.074,126.878z"/>
			<path d="M127.56,0c-1.329,0-2.599,0.118-3.897,0.207l22.499,22.529l7.854-7.854c19.312,9.124,33.159,27.874,35.255,50.078h8.859
				C195.119,28.582,164.705,0,127.56,0z"/>
			<path d="M156.88,53.355L156.88,53.355c-1.86-1.948-4.104-3.454-6.703-4.518c-2.627-1.063-5.491-1.595-8.65-1.595H127.56v47.244
				h13.553c3.277,0,6.23-0.531,8.918-1.595c2.687-1.063,4.96-2.568,6.85-4.518c1.891-1.949,3.366-4.311,4.37-7.057
				c1.033-2.746,1.536-5.847,1.536-9.271v-2.333c0-3.425-0.532-6.496-1.565-9.271C160.187,57.667,158.741,55.304,156.88,53.355z
				 M154.578,72.076h-0.029c0,2.45-0.266,4.694-0.857,6.644c-0.561,1.978-1.387,3.632-2.51,4.99c-1.121,1.357-2.51,2.392-4.192,3.13
				c-1.683,0.708-3.632,1.092-5.876,1.092h-5.345V53.857h5.758c4.252,0,7.471,1.358,9.714,4.045
				c2.215,2.717,3.337,6.614,3.337,11.752L154.578,72.076L154.578,72.076z"/>
		</g>
	</g>
</g>
</svg>
