<?xml version="1.0" encoding="UTF-8" standalone="no"?>
<!-- Generator: Adobe Illustrator 16.0.0, SVG Export Plug-In . SVG Version: 6.00 Build 0)  -->

<svg
   xmlns:dc="http://purl.org/dc/elements/1.1/"
   xmlns:cc="http://creativecommons.org/ns#"
   xmlns:rdf="http://www.w3.org/1999/02/22-rdf-syntax-ns#"
   xmlns:svg="http://www.w3.org/2000/svg"
   xmlns="http://www.w3.org/2000/svg"
   xmlns:sodipodi="http://sodipodi.sourceforge.net/DTD/sodipodi-0.dtd"
   xmlns:inkscape="http://www.inkscape.org/namespaces/inkscape"
   version="1.1"
   id="Capa_1"
   x="0px"
   y="0px"
   width="51.821106"
   height="50.48035"
   viewBox="0 0 51.821106 50.48035"
   enable-background="new 0 0 48 48"
   xml:space="preserve"
   sodipodi:docname="bag.svg"
   inkscape:version="0.92.1 r15371"><metadata
   id="metadata19"><rdf:RDF><cc:Work
       rdf:about=""><dc:format>image/svg+xml</dc:format><dc:type
         rdf:resource="http://purl.org/dc/dcmitype/StillImage" /><dc:title></dc:title></cc:Work></rdf:RDF></metadata><defs
   id="defs17" /><sodipodi:namedview
   pagecolor="#ffffff"
   bordercolor="#666666"
   borderopacity="1"
   objecttolerance="10"
   gridtolerance="10"
   guidetolerance="10"
   inkscape:pageopacity="0"
   inkscape:pageshadow="2"
   inkscape:window-width="1366"
   inkscape:window-height="705"
   id="namedview15"
   showgrid="false"
   inkscape:zoom="10.875"
   inkscape:cx="25.9098"
   inkscape:cy="44.516805"
   inkscape:window-x="-8"
   inkscape:window-y="-8"
   inkscape:window-maximized="1"
   inkscape:current-layer="Capa_1" />
<path
   stroke-miterlimit="10"
   d="m 17.6428,20.47935 c 1.104,0 2,-0.896 2,-2 v -7.8 c 0,-3.487 2.837,-6.325 6.325,-6.325 3.487,0 6.325,2.838 6.325,6.325 v 7.8 c 0,1.104 0.896,2 2,2 1.104,0 2,-0.896 2,-2 v -7.8 c 0,-5.693 -4.632,-10.325 -10.325,-10.325 -5.692,0 -10.324,4.632 -10.324,10.325 v 7.8 c -0.001,1.104 0.895,2 1.999,2 z"
   id="path10"
   inkscape:connector-curvature="0"
   style="stroke:#000000;stroke-width:0.7087;stroke-miterlimit:10" />
<path
   stroke-miterlimit="10"
   d="m 48.9098,15.98535 h -10.617 v 2.494 c 0,2.206 -1.794,4 -4,4 -2.205,0 -4,-1.794 -4,-4 v -2.494 h -8.649 v 2.494 c 0,2.206 -1.794,4 -4,4 -2.206,0 -4,-1.794 -4,-4 v -2.494 H 2.9097998 c -0.552,0 -0.893,0.435 -0.762,0.971 l 6.997,28.498 c 0.423,1.602 2.1080002,2.9 3.7650002,2.9 h 26 c 1.658,0 3.342,-1.299 3.768,-2.9 l 6.996,-28.498 c 0.129,-0.537 -0.211,-0.971 -0.764,-0.971 z"
   id="path12"
   inkscape:connector-curvature="0"
   style="fill:none;stroke:#000000;stroke-width:4.25199986;stroke-miterlimit:10" />
</svg>