<?xml version="1.0" encoding="UTF-8" standalone="no"?>
<!-- Generator: Adobe Illustrator 16.0.0, SVG Export Plug-In . SVG Version: 6.00 Build 0)  -->

<svg
   xmlns:dc="http://purl.org/dc/elements/1.1/"
   xmlns:cc="http://creativecommons.org/ns#"
   xmlns:rdf="http://www.w3.org/1999/02/22-rdf-syntax-ns#"
   xmlns:svg="http://www.w3.org/2000/svg"
   xmlns="http://www.w3.org/2000/svg"
   xmlns:sodipodi="http://sodipodi.sourceforge.net/DTD/sodipodi-0.dtd"
   xmlns:inkscape="http://www.inkscape.org/namespaces/inkscape"
   version="1.1"
   id="Capa_1"
   x="0px"
   y="0px"
   width="60.4739"
   height="104.6269"
   viewBox="0 0 60.4739 104.6269"
   enable-background="new 0 0 96.125 96.123"
   xml:space="preserve"
   sodipodi:docname="facebook.svg"
   inkscape:version="0.92.1 r15371"><metadata
   id="metadata19"><rdf:RDF><cc:Work
       rdf:about=""><dc:format>image/svg+xml</dc:format><dc:type
         rdf:resource="http://purl.org/dc/dcmitype/StillImage" /><dc:title></dc:title></cc:Work></rdf:RDF></metadata><defs
   id="defs17" /><sodipodi:namedview
   pagecolor="#ffffff"
   bordercolor="#666666"
   borderopacity="1"
   objecttolerance="10"
   gridtolerance="10"
   guidetolerance="10"
   inkscape:pageopacity="0"
   inkscape:pageshadow="2"
   inkscape:window-width="1366"
   inkscape:window-height="705"
   id="namedview15"
   showgrid="false"
   inkscape:zoom="5.4305421"
   inkscape:cx="30.23745"
   inkscape:cy="15.484713"
   inkscape:window-x="-8"
   inkscape:window-y="-8"
   inkscape:window-maximized="1"
   inkscape:current-layer="Capa_1" />
<g
   id="g12"
   transform="translate(-17.82505,4.2519498)">
	<path
   stroke-miterlimit="10"
   d="M 72.089,0.02 59.625,0 C 45.62,0 36.57,9.285 36.57,23.656 V 34.563 H 24.037 c -1.083,0 -1.96,0.878 -1.96,1.961 v 15.803 c 0,1.083 0.878,1.96 1.96,1.96 H 36.57 v 39.876 c 0,1.083 0.877,1.96 1.96,1.96 h 16.353 c 1.082,0 1.959,-0.878 1.959,-1.96 V 54.287 h 14.654 c 1.084,0 1.961,-0.877 1.961,-1.96 l 0.006,-15.803 c 0,-0.52 -0.207,-1.018 -0.574,-1.386 -0.367,-0.368 -0.867,-0.575 -1.387,-0.575 h -14.66 v -9.246 c 0,-4.444 1.06,-6.7 6.849,-6.7 l 8.397,-0.003 c 1.082,0 1.959,-0.878 1.959,-1.96 V 1.98 C 74.046,0.899 73.169,0.022 72.089,0.02 Z"
   id="path10"
   inkscape:connector-curvature="0"
   style="fill:none;stroke:#000000;stroke-width:5.50389957;stroke-miterlimit:10" />
</g>
</svg>