<?xml version="1.0" encoding="UTF-8" standalone="no"?>
<!-- Generator: Adobe Illustrator 16.0.0, SVG Export Plug-In . SVG Version: 6.00 Build 0)  -->

<svg
   xmlns:dc="http://purl.org/dc/elements/1.1/"
   xmlns:cc="http://creativecommons.org/ns#"
   xmlns:rdf="http://www.w3.org/1999/02/22-rdf-syntax-ns#"
   xmlns:svg="http://www.w3.org/2000/svg"
   xmlns="http://www.w3.org/2000/svg"
   xmlns:sodipodi="http://sodipodi.sourceforge.net/DTD/sodipodi-0.dtd"
   xmlns:inkscape="http://www.inkscape.org/namespaces/inkscape"
   version="1.1"
   id="Capa_1"
   x="0px"
   y="0px"
   width="7932.8389"
   height="7086.6089"
   viewBox="0 0 7932.8389 7086.609"
   enable-background="new 0 0 16382.839 7086.609"
   xml:space="preserve"
   sodipodi:docname="gift-white.svg"
   inkscape:version="0.92.1 r15371"><metadata
   id="metadata21"><rdf:RDF><cc:Work
       rdf:about=""><dc:format>image/svg+xml</dc:format><dc:type
         rdf:resource="http://purl.org/dc/dcmitype/StillImage" /><dc:title></dc:title></cc:Work></rdf:RDF></metadata><defs
   id="defs19" /><sodipodi:namedview
   pagecolor="#ffffff"
   bordercolor="#666666"
   borderopacity="1"
   objecttolerance="10"
   gridtolerance="10"
   guidetolerance="10"
   inkscape:pageopacity="0"
   inkscape:pageshadow="2"
   inkscape:window-width="1366"
   inkscape:window-height="705"
   id="namedview17"
   showgrid="false"
   inkscape:zoom="0.047686619"
   inkscape:cx="7563.9659"
   inkscape:cy="3543.3044"
   inkscape:window-x="-8"
   inkscape:window-y="-8"
   inkscape:window-maximized="1"
   inkscape:current-layer="Capa_1" />
<g
   id="g14"
   transform="translate(-4235.9892)">
	<g
   id="g12">
		<path
   style="fill:#ffffff"
   d="m 11111.88,1245.693 h -734.573 c 70.908,-122.258 111.725,-264.019 111.725,-415.231 C 10489.031,372.546 10116.486,0 9658.57,0 c -332.877,0 -647.678,129.109 -886.422,363.52 -64.832,63.655 -121.511,133.055 -170.176,206.758 -109.704,-96.402 -253.375,-155.046 -410.553,-155.046 -157.179,0 -300.849,58.644 -410.566,155.06 C 7732.202,496.589 7675.509,427.19 7610.677,363.534 7371.947,129.109 7057.146,0 6724.27,0 c -457.917,0 -830.461,372.546 -830.461,830.461 0,151.213 40.817,292.974 111.725,415.231 h -734.571 c -343.438,0 -622.847,279.41 -622.847,622.847 v 830.462 c 0,270.675 173.553,501.585 415.231,587.274 v 3177.486 c 0,343.438 105.135,622.848 448.573,622.848 h 5320 c 343.438,0 487.574,-279.41 487.574,-622.848 V 3286.276 c 241.679,-85.689 415.23,-316.6 415.23,-587.274 V 1868.54 c 0,-343.436 -279.408,-622.847 -622.844,-622.847 z M 7568.573,6807.805 H 5519.535 c -114.479,0 -207.616,-93.137 -207.616,-207.617 V 5343.805 h 2256.653 v 1464 z m 0,-1825.033 H 5311.919 v -486.967 h 2256.653 v 486.967 z m 0,-830.461 H 5311.919 v -830.462 h 2256.653 v 830.462 z m 0,-1168.506 H 5143.919 c -114.48,0 -207.616,-93.135 -207.616,-207.615 V 1767.42 c 0,-114.479 93.136,-207.615 207.616,-207.615 129.939,0 2342.659,0 2424.653,0 v 1424 z M 6724.27,1245.693 c -228.958,0 -415.231,-186.272 -415.231,-415.231 0,-228.958 186.273,-415.23 415.231,-415.23 465.558,0 844.303,372.544 844.303,830.461 z m 1771.65,5562.112 h -616 v -5240 h 616 z m -96.885,-5562.112 h -415.231 v -207.616 c 0,-114.478 93.137,-207.615 207.615,-207.615 114.479,0 207.616,93.137 207.616,207.615 z M 9658.57,415.232 c 228.957,0 415.23,186.272 415.23,415.23 0,228.959 -186.273,415.231 -415.23,415.231 h -844.305 c 0,-457.917 378.749,-830.461 844.305,-830.461 z m 1382.119,6184.956 c 0,114.48 -93.137,207.617 -207.615,207.617 H 8814.266 v -1464 h 2226.424 v 1256.383 z m 0,-1617.416 H 8814.266 v -486.967 h 2226.424 v 486.967 z m 0,-830.461 H 8814.266 v -830.462 h 2226.424 v 830.462 z M 11455.92,2776.19 c 0,114.48 -93.137,207.615 -207.614,207.615 h -2434.04 v -1424 c 81.885,0 2304.154,0 2434.04,0 114.478,0 207.614,93.136 207.614,207.615 z"
   id="path10"
   inkscape:connector-curvature="0" />
	</g>
</g>
</svg>