<?xml version="1.0" encoding="utf-8"?>
<!-- Generator: Adobe Illustrator 16.0.0, SVG Export Plug-In . SVG Version: 6.00 Build 0)  -->
<!DOCTYPE svg PUBLIC "-//W3C//DTD SVG 1.1//EN" "http://www.w3.org/Graphics/SVG/1.1/DTD/svg11.dtd">
<svg version="1.1" id="Capa_1" xmlns="http://www.w3.org/2000/svg" xmlns:xlink="http://www.w3.org/1999/xlink" x="0px" y="0px"
	 width="16382.839px" height="7086.609px" viewBox="0 0 16382.839 7086.609" enable-background="new 0 0 16382.839 7086.609"
	 xml:space="preserve">
<g>
	<g>
		<g>
			<path fill="#C49D42" d="M11111.88,1245.693h-734.573c70.908-122.258,111.725-264.019,111.725-415.231
				C10489.031,372.546,10116.486,0,9658.57,0c-332.877,0-647.678,129.109-886.422,363.52
				c-64.832,63.655-121.511,133.055-170.176,206.758c-109.704-96.402-253.375-155.046-410.553-155.046
				c-157.179,0-300.849,58.644-410.566,155.06c-48.651-73.703-105.344-143.102-170.176-206.758
				C7371.947,129.109,7057.146,0,6724.27,0c-457.917,0-830.461,372.546-830.461,830.461c0,151.213,40.817,292.974,111.725,415.231
				h-734.571c-343.438,0-622.847,279.41-622.847,622.847v830.462c0,270.675,173.553,501.585,415.231,587.274v3177.486
				c0,343.438,105.135,622.848,448.573,622.848h5320c343.438,0,487.574-279.41,487.574-622.848V3286.276
				c241.679-85.689,415.23-316.6,415.23-587.274V1868.54C11734.725,1525.104,11455.316,1245.693,11111.88,1245.693z
				 M7568.573,6807.805H5519.535c-114.479,0-207.616-93.137-207.616-207.617V5343.805h2256.653V6807.805z M7568.573,4982.772
				H5311.919v-486.967h2256.653V4982.772z M7568.573,4152.311H5311.919v-830.462h2256.653V4152.311z M7568.573,2983.805H5143.919
				c-114.48,0-207.616-93.135-207.616-207.615V1767.42c0-114.479,93.136-207.615,207.616-207.615c129.939,0,2342.659,0,2424.653,0
				V2983.805z M6724.27,1245.693c-228.958,0-415.231-186.272-415.231-415.231c0-228.958,186.273-415.23,415.231-415.23
				c465.558,0,844.303,372.544,844.303,830.461H6724.27z M8495.92,6807.805h-616v-5240h616V6807.805z M8399.035,1245.693h-415.231
				v-207.616c0-114.478,93.137-207.615,207.615-207.615c114.479,0,207.616,93.137,207.616,207.615V1245.693z M9658.57,415.232
				c228.957,0,415.23,186.272,415.23,415.23c0,228.959-186.273,415.231-415.23,415.231h-844.305
				C8814.266,787.776,9193.014,415.232,9658.57,415.232z M11040.689,6600.188c0,114.48-93.137,207.617-207.615,207.617H8814.266
				v-1464h2226.424V6600.188z M11040.689,4982.772H8814.266v-486.967h2226.424V4982.772z M11040.689,4152.311H8814.266v-830.462
				h2226.424V4152.311z M11455.92,2776.19c0,114.48-93.137,207.615-207.614,207.615h-2434.04v-1424c81.885,0,2304.154,0,2434.04,0
				c114.478,0,207.614,93.136,207.614,207.615V2776.19z"/>
		</g>
	</g>
</g>
</svg>
