<?xml version="1.0" encoding="UTF-8" standalone="no"?>
<svg
   xmlns:dc="http://purl.org/dc/elements/1.1/"
   xmlns:cc="http://creativecommons.org/ns#"
   xmlns:rdf="http://www.w3.org/1999/02/22-rdf-syntax-ns#"
   xmlns:svg="http://www.w3.org/2000/svg"
   xmlns="http://www.w3.org/2000/svg"
   xmlns:sodipodi="http://sodipodi.sourceforge.net/DTD/sodipodi-0.dtd"
   xmlns:inkscape="http://www.inkscape.org/namespaces/inkscape"
   height="30.268999"
   version="1.1"
   viewBox="0 0 46.1721 30.268999"
   width="46.1721"
   id="svg21"
   sodipodi:docname="google.svg"
   inkscape:version="0.92.1 r15371">
  <metadata
     id="metadata25">
    <rdf:RDF>
      <cc:Work
         rdf:about="">
        <dc:format>image/svg+xml</dc:format>
        <dc:type
           rdf:resource="http://purl.org/dc/dcmitype/StillImage" />
        <dc:title></dc:title>
      </cc:Work>
    </rdf:RDF>
  </metadata>
  <sodipodi:namedview
     pagecolor="#ffffff"
     bordercolor="#666666"
     borderopacity="1"
     objecttolerance="10"
     gridtolerance="10"
     guidetolerance="10"
     inkscape:pageopacity="0"
     inkscape:pageshadow="2"
     inkscape:window-width="1366"
     inkscape:window-height="705"
     id="namedview23"
     showgrid="false"
     inkscape:zoom="8.7"
     inkscape:cx="23.0004"
     inkscape:cy="15"
     inkscape:window-x="-8"
     inkscape:window-y="-8"
     inkscape:window-maximized="1"
     inkscape:current-layer="svg21" />
  <desc
     id="desc12" />
  <defs
     id="defs14" />
  <g
     id="Page-1"
     style="fill:none;fill-rule:evenodd;stroke:none;stroke-width:1"
     transform="translate(-6.9996,-14.731)">
    <g
       id="Google-Plus"
       transform="translate(1,1)"
       style="stroke:#000000;stroke-width:1.6">
      <polygon
         id="Stroke-5" style="stroke:#c49d42"
         points="46.2817,26.3448 46.2817,21.4478 42.7887,21.4478 42.7887,26.3448 37.7607,26.3448 37.7607,29.8448 42.7887,29.8448 42.7887,34.8828 46.2817,34.8828 46.2817,29.8448 51.1717,29.8448 51.1717,26.3448 " />
      <path
         d="m 21.1076,43 c 11.648,0 14.495,-10.16 13.552,-16.935 h -13.552 v 5.597 c 0,0 5.422,-0.007 7.629,-0.007 -1.194,3.628 -3.055,5.607 -7.629,5.607 -4.627,0 -8.242,-3.762 -8.242,-8.397 0,-4.637 3.615,-8.4 8.242,-8.4 2.45,0 4.028,0.865 5.479,2.063 1.161,-1.161 1.063,-1.325 4.015,-4.119 -2.504,-2.285 -5.836,-3.678 -9.494,-3.678 -7.791,0 -14.108,6.327 -14.108,14.134 0,7.805 6.317,14.135 14.108,14.135 z"
         id="Stroke-7" style="stroke:#c49d42"
         inkscape:connector-curvature="0" />
    </g>
  </g>
</svg>
