<svg id="Capa_1" data-name="Capa 1" xmlns="http://www.w3.org/2000/svg" viewBox="0 0 510 510"><title>icon-pinterest</title><g id="post-pinterest"><path d="M459,0H51A51.15,51.15,0,0,0,0,51V459a51.15,51.15,0,0,0,51,51H459a51.15,51.15,0,0,0,51-51V51A51.15,51.15,0,0,0,459,0ZM280.5,362.1c-20.4,0-40.8-7.65-53.55-22.95l-25.5,81.6-2.55,5.1h0c-5.1,7.65-12.75,12.75-22.95,12.75a28.3,28.3,0,0,1-28.05-28V408h0l2.55-5.1,45.9-142.8s-5.1-15.3-5.1-38.25c0-43.35,23-56.1,43.35-56.1,17.85,0,35.7,7.65,35.7,33.15,0,33.15-22.95,51-22.95,76.5,0,17.85,15.3,33.15,33.15,33.15,58.65,0,81.6-45.9,81.6-86.7,0-56.1-48.45-102-107.1-102s-107.1,45.9-107.1,102c0,17.85,5.1,33.15,12.75,48.45,2.55,5.1,2.55,7.65,2.55,12.75,0,15.3-10.2,25.5-25.5,25.5-10.2,0-17.85-5.1-23-12.75-12.75-22.95-20.4-48.45-20.4-76.5,0-84.15,71.4-153,158.1-153s158.1,68.85,158.1,153C413.1,290.7,372.3,362.1,280.5,362.1Z"/></g></svg>