<svg id="Capa_1" data-name="Capa 1" xmlns="http://www.w3.org/2000/svg" viewBox="0 0 512 512"><path class="cls-1" d="M260.27,0C121.46,0,8.53,112.92,8.53,251.73a251.48,251.48,0,0,0,33.25,125l-41.34,124A8.53,8.53,0,0,0,10.7,511.72l135.4-35.63a252.39,252.39,0,0,0,114.17,27.37C399.08,503.47,512,390.54,512,251.73S399.08,0,260.27,0ZM417.35,366l-15,15C383.4,400,362.27,409.6,339.54,409.6h0c-30.63,0-63.67-17.49-98.16-52l-87-87c-27.2-27.2-43.92-53.63-49.69-78.56-7-30.27,1.84-58,26.26-82.41l15-15A32.33,32.33,0,0,1,183.32,89c22.72,12,46.25,51.41,48.86,55.87,4.71,8.25,6.15,16.79,4.12,24.1a22.28,22.28,0,0,1-10.14,13.24c-6.9,5.77-15,13-16.4,14.78-8.67,12.79-7.68,22.61,3.49,33.79l67.94,67.94c11.26,11.27,20.92,12.2,33.91,3.4,1.72-1.34,8.89-9.42,14.66-16.32,4.31-7.12,11.37-11,20-11a35.34,35.34,0,0,1,17.3,4.95c4.54,2.67,43.94,26.21,56,48.91A31.64,31.64,0,0,1,417.35,366Z" transform="translate(0)"/></svg>