<svg id="Layer_1" data-name="Layer 1" xmlns="http://www.w3.org/2000/svg" viewBox="0 0 512 477.87"><path class="cls-1" d="M503.47,204.8h-8.53V42.67a25.67,25.67,0,0,0-25.6-25.6H214.19l-0.43,0-0.43,0H42.67a25.67,25.67,0,0,0-25.6,25.6V204.8H8.53c-5.12,0-8.53,3.41-8.53,8.53v85.33c0,5.12,3.41,8.53,8.53,8.53h8.53V469.33a25.67,25.67,0,0,0,25.6,25.6H469.33c13.65,0,25.6-11.95,25.6-25.6V307.2h8.53c5.12,0,8.53-3.41,8.53-8.53V213.33C512,208.21,508.59,204.8,503.47,204.8ZM477.87,42.67V204.8H400.64c-0.86-7.52-2.29-14.66-4.69-18.77-8.53-15.36-23.89-24.75-42.67-24.75h-0.85c-16.88,0-31.91,11.34-44.37,24.47V34.13H469.33A8.55,8.55,0,0,1,477.87,42.67ZM369.37,317.48c-0.24.27-.48,0.56-0.73,0.81s-0.6.57-.91,0.85l-0.65.54-0.16.13c-6.41,5-15.69,5.36-24.27,3.65a58.87,58.87,0,0,1-16.1-6.37c-12.68-7.79-24.21-21-25.26-37.29a50.87,50.87,0,0,0,3.57-8.5l22.83,17.12a12.14,12.14,0,0,0,5.12,1.71,7.76,7.76,0,0,0,6.83-3.41c2.56-3.41,1.71-9.39-1.71-11.95l-25-18.77,25-18.77c3.41-2.56,4.27-8.53,1.71-11.95s-8.53-4.27-11.95-1.71L304.85,240.7A51.13,51.13,0,0,0,298,226.84c0.93-1.2,2-2.54,3.22-4.12a47.34,47.34,0,0,0,5.12-6.83l0.45-.92c7.94-10.63,27.92-34.92,45.63-34.92,9.15,0,16.54,2.63,21.89,7.86a28.2,28.2,0,0,1,4.56,6.65c2.56,5.12,4.27,28.16,3.41,36.69V243.2c0,12.86-.4,37.31-4.76,55.57C374.6,309.2,371.7,314.72,369.37,317.48ZM294.28,361l-1.67,2.6a7.52,7.52,0,0,0-1,1L268,305.75a51.09,51.09,0,0,0,19.15-9.23,62.69,62.69,0,0,0,7.68,14.27,73,73,0,0,0,15.2,16.07l11.21,24.65L307.2,349a10.5,10.5,0,0,0-8.53,4.27Zm-85.21-7.68a10.18,10.18,0,0,0-7.68-4.27h-0.85L186,351.57l9.39-20.48,0,0A69.35,69.35,0,0,0,225,296.7a51.09,51.09,0,0,0,18.5,9l-27.35,59.5Zm-66.56-35c-2.47-2.47-6.53-8.15-9.12-20.08a6.43,6.43,0,0,0-.27-1.26C128.85,279,128,257.71,128,243.2h0V231.25a154.89,154.89,0,0,1,.85-17.07c0-.24,0-0.47,0-0.71,0,0,0-.1,0-0.15,0.85-11.95,2.56-17.07,3.41-18.77,5-10,14.13-15.13,26.52-15.34l0.79,0h0c0.59,0,1.19,0,1.78.08,18.32,1.63,38.54,27.52,45.15,36.61a5,5,0,0,0,.91,1c1.56,2.1,3,4.06,4.21,5.82,0.85,0.85,1.71,2.56,2.56,3.41a51.8,51.8,0,0,0-7.1,14.52l-22.77-17.08c-3.41-2.56-9.39-1.71-11.95,1.71s-1.71,9.39,1.71,11.95l25,18.77-25,18.77c-3.41,2.56-4.27,8.53-1.71,11.95a7.76,7.76,0,0,0,6.83,3.41,12.13,12.13,0,0,0,5.12-1.71l22.47-16.86a66.44,66.44,0,0,0,2.27,7.47c-0.85,19.63-16.21,35-32.43,41.81a47.58,47.58,0,0,1-9.22,3.17C158.2,325.74,148.87,324.66,142.51,318.29ZM286,239.76h0c0.15,0.28.29,0.57,0.44,0.85a35.22,35.22,0,0,1,3.65,13.75c0,0.54,0,1.08,0,1.62,0,0.73,0,1.46-.08,2.19v0.12a30.9,30.9,0,0,1-2.51,10.11,8.14,8.14,0,0,0-4.23,3.8,33.49,33.49,0,0,1-42.66,14.24,34.51,34.51,0,0,1-13-11.44,7.59,7.59,0,0,0-.71-1.95,30.66,30.66,0,0,1-5-14.76s0-.08,0-0.12c-0.05-.73-0.08-1.46-0.08-2.19,0-.54,0-1.08,0-1.61,0.41-8,3.86-15.78,11.05-20.58a9.75,9.75,0,0,0,1.81-4.48A34,34,0,0,1,286,239.76Zm4.14-32.56-3.41,4.43-0.95,1.56a1.37,1.37,0,0,0-.72.72A50.84,50.84,0,0,0,259.9,205h-0.17l-1.56-.1c-0.72,0-1.45-.05-2.17-0.05s-1.45,0-2.17.05l-1.55.1H252.1a50.74,50.74,0,0,0-20.91,6.3c-1.36.71-2.7,1.47-4,2.29l-0.17-.22c-1.59-2.06-3.31-4.29-5.12-6.62V34.13h68.27V207.2h0ZM34.13,42.67c0-4.27,4.27-8.53,8.53-8.53h163V186.88c-13.65-13.65-29-24.75-46.08-24.75-19.63.85-34.13,9.39-42.67,24.75-0.85,1.71-2.56,5.12-4.27,17.92H34.13V42.67ZM17.07,221.87h93.87V243.2c0.85,11.95.85,29.87,3.41,46.93H17.07V221.87ZM34.13,469.33V307.2H118c2.81,9.86,6.81,18.2,12.51,23.89a44.33,44.33,0,0,0,29.87,11.09,54.42,54.42,0,0,0,10.83-1.13L163,359.25c-1.71,2.56-.85,6,0.85,8.53,2.56,2.56,5.12,4.27,8.53,3.41l24.75-4.27,7.68,13.65v97.28H42.67A8.55,8.55,0,0,1,34.13,469.33Zm188.59-78.51a11.78,11.78,0,0,0,2.56-3.41L256,320l26.45,67.41,0.06,0.16a7.41,7.41,0,0,0,6.77,5h0.85v85.33H222.72v-87Zm255.15,78.51a8.55,8.55,0,0,1-8.53,8.53H307.2V372.62l3.41-5.69,21.33,3.41a18.15,18.15,0,0,0,1.85-.1l0.71,0.1c3.41,0,6.83-.85,8.53-3.41s2.56-6,.85-8.53L335,339.71a59.73,59.73,0,0,0,16.62,2.48c11.95,0,22.19-4.27,31.57-12.8,5.37-5.37,9.13-13.08,11.82-22.19h82.9V469.33h0Zm17.07-179.2H398.63c2.28-15,2.89-31.9,3.29-47.79V232.11c0-1.94,0-5.67-.14-10.24h93.15v68.27Z" transform="translate(0 -17.07)"/></svg>