<?xml version="1.0" encoding="UTF-8" standalone="no"?>
<svg
   xmlns:dc="http://purl.org/dc/elements/1.1/"
   xmlns:cc="http://creativecommons.org/ns#"
   xmlns:rdf="http://www.w3.org/1999/02/22-rdf-syntax-ns#"
   xmlns:svg="http://www.w3.org/2000/svg"
   xmlns="http://www.w3.org/2000/svg"
   xmlns:sodipodi="http://sodipodi.sourceforge.net/DTD/sodipodi-0.dtd"
   xmlns:inkscape="http://www.inkscape.org/namespaces/inkscape"
   height="512px"
   id="Layer_1"
   style="enable-background:new 0 0 512 512;"
   version="1.1"
   viewBox="0 0 512 512"
   width="512px"
   xml:space="preserve"
   sodipodi:docname="icon-heart.svg"
   inkscape:version="0.92.1 r15371"><metadata
     id="metadata17"><rdf:RDF><cc:Work
         rdf:about=""><dc:format>image/svg+xml</dc:format><dc:type
           rdf:resource="http://purl.org/dc/dcmitype/StillImage" /><dc:title></dc:title></cc:Work></rdf:RDF></metadata><defs
     id="defs15" /><sodipodi:namedview
     pagecolor="#ffffff"
     bordercolor="#666666"
     borderopacity="1"
     objecttolerance="10"
     gridtolerance="10"
     guidetolerance="10"
     inkscape:pageopacity="0"
     inkscape:pageshadow="2"
     inkscape:window-width="1366"
     inkscape:window-height="705"
     id="namedview13"
     showgrid="false"
     inkscape:zoom="1.0195312"
     inkscape:cx="256"
     inkscape:cy="295.23372"
     inkscape:window-x="-8"
     inkscape:window-y="-8"
     inkscape:window-maximized="1"
     inkscape:current-layer="Layer_1" /><path
     d="m 368.79898,25.130467 c 67.14675,0 121.71175,60.50071 121.71175,135.211033 0,38.38059 -14.43589,72.95242 -37.48033,97.56288 L 256.49042,477.34763 56.507025,253.94912 C 35.581609,229.63166 22.602554,196.67122 22.602554,160.3415 c 0,-74.710323 54.432568,-135.211033 121.711746,-135.211033 50.59183,0 93.89949,34.278852 112.30856,83.206783 18.14419,-48.781439 61.58429,-83.206783 112.17612,-83.206783 m 0,-22.5595858 c -44.7645,0 -85.82069,23.1455498 -112.30856,61.2331628 C 230.00256,25.716431 188.94636,2.5708812 144.18186,2.5708812 65.910217,2.5708812 2.2068966,73.325947 2.2068966,160.3415 c 0,40.87094 14.0385704,79.691 39.5993614,109.28214 l 200.248282,223.69148 14.43588,16.114 14.43589,-16.114 196.40754,-219.44324 c 27.81226,-29.73764 43.4401,-70.1691 43.4401,-113.53038 0,-87.015553 -63.70332,-157.7706188 -141.97497,-157.7706188 z"
     id="path10"
     inkscape:connector-curvature="0"
     style="stroke-width:1.39288008" /></svg>