<svg id="Capa_1" data-name="Capa 1" xmlns="http://www.w3.org/2000/svg" viewBox="0 0 510 510"><defs><style>.cls-1{fill:#fff;}</style></defs><title>icon-gplus</title><g id="post-gplus"><path class="cls-1" d="M234.6,176c0-25.5-15.3-76.5-53.55-76.5-15.3,0-33.15,10.2-33.15,43.35,0,30.6,15.3,74,51,74C198.9,216.75,234.6,214.2,234.6,176Zm-15.3,125h-7.65c-7.65,0-30.6,2.55-45.9,7.65-17.85,5.1-38.25,17.85-38.25,43.35,0,28,25.5,56.1,76.5,56.1,38.25,0,61.2-25.5,61.2-51C265.2,339.15,252.45,326.4,219.3,300.9ZM459,0H51A51.15,51.15,0,0,0,0,51V459a51.15,51.15,0,0,0,51,51H459a51.15,51.15,0,0,0,51-51V51A51.15,51.15,0,0,0,459,0ZM181,438.6c-71.4,0-104.55-40.8-104.55-76.5,0-12.75,2.55-40.8,38.25-61.2,20.4-12.75,45.9-20.4,79-22.95-5.1-5.1-7.65-12.75-7.65-25.5,0-5.1,0-7.65,2.55-12.75H178.5c-51,0-81.6-38.25-81.6-76.5,0-43.35,33.15-91.8,104.55-91.8h107.1l-7.65,7.65L283,96.9l-2.55,2.55H262.65c10.2,10.2,22.95,28,22.95,56.1,0,35.7-17.85,53.55-40.8,68.85-5.1,2.55-10.2,10.2-10.2,17.85s5.1,12.75,10.2,15.3c2.55,2.55,7.65,5.1,12.75,7.65,20.4,15.3,48.45,33.15,48.45,74C306,385,272.85,438.6,181,438.6ZM433.5,255h-51v51H357V255H306V229.5h51v-51h25.5v51h51V255Z"/></g></svg>