<svg id="Capa_1" data-name="Capa 1" xmlns="http://www.w3.org/2000/svg" viewBox="0 0 504.22 566.93"><title>icon-trash</title><path d="M519.84,81.59h-118V62.36A62.43,62.43,0,0,0,339.53,0H227.4A62.43,62.43,0,0,0,165,62.36V81.59h-118a15.73,15.73,0,1,0,0,31.47H75.53V482.78a84.26,84.26,0,0,0,84.15,84.15H407.25a84.26,84.26,0,0,0,84.15-84.15V113.06h28.44A15.73,15.73,0,0,0,519.84,81.59ZM196.51,62.36A30.94,30.94,0,0,1,227.4,31.47H339.53a30.94,30.94,0,0,1,30.89,30.89V81.59H196.51V62.36ZM459.93,482.78a52.78,52.78,0,0,1-52.68,52.68H159.68A52.78,52.78,0,0,1,107,482.78V113.06H460V482.78h-0.12Z" transform="translate(-31.35)"/><path d="M283.46,479a15.67,15.67,0,0,0,15.73-15.74V185.21a15.73,15.73,0,1,0-31.47,0v278A15.77,15.77,0,0,0,283.46,479Z" transform="translate(-31.35)"/><path d="M180.78,461.68a15.67,15.67,0,0,0,15.74-15.74V202.46a15.74,15.74,0,0,0-31.47,0V445.94A15.74,15.74,0,0,0,180.78,461.68Z" transform="translate(-31.35)"/><path d="M386.15,461.68a15.67,15.67,0,0,0,15.74-15.74V202.46a15.74,15.74,0,0,0-31.47,0V445.94A15.67,15.67,0,0,0,386.15,461.68Z" transform="translate(-31.35)"/></svg>