<svg id="Capa_1" data-name="Capa 1" xmlns="http://www.w3.org/2000/svg" viewBox="0 0 1440 1206.3"><title>icon-diamond</title><path d="M1981.84,473.74L1733.2,164.92C1721,150,1705.14,139,1687.87,130.66S1652,117,1632.78,116.85H925.3c-19.25.13-37.79,5.62-55.13,13.84C853,139.1,837.06,150.14,825,165.1L578.06,473.72l0-.06C565.54,489.38,560,508.33,560,526.74c0.06,20.25,6.69,40.86,21.33,57.24l645.24,715,0,0a71.2,71.2,0,0,0,107,0l645.23-715,0,0c14.57-16.34,21.17-36.87,21.23-57.09C2000,508.39,1994.42,489.44,1981.84,473.74ZM1375.61,174.38l130.37,326H1051.36l107.63-326h216.62ZM869.87,201c4.35-5.64,14.23-13.31,25.21-18.49,10.91-5.35,23.09-8.28,30.2-8.17h173.11l-107.63,326H630.39ZM635.24,557.88h355.6l208.26,624.82Zm644.8,685.6-228.55-685.6h457.07Zm80.93-60.8,208.22-624.8h355.6Zm207-682.32-130.39-326H1632.8c7.11-.11,19.31,2.8,30.26,8.15,11,5.19,21,12.85,25.35,18.48l241,299.34H1567.95Z" transform="translate(-560 -116.85)"/></svg>