<svg id="Capa_1" data-name="Capa 1" xmlns="http://www.w3.org/2000/svg" viewBox="0 0 1440.05 1440.05"><path class="cls-1" d="M1280,0C882.34,0,560,322.34,560,720s322.37,720,720,720,720-322.37,720-720S1677.66,0,1280,0Zm480.34,374.19-164.41,786c-7.71,36.88-51,53.45-81.35,31.15l-248.23-182.21-126.51,129.18c-22.2,22.67-60.56,13.5-70.1-16.77L978.42,831.77l-244.7-72.26c-32.11-9.48-34-54.24-2.81-66.39l962.95-375.25C1730.51,303.59,1768.39,335.67,1760.34,374.17Z" transform="translate(-559.97 0.03)"/><path class="cls-1" d="M1559.26,473.66L1031.06,801.25a24,24,0,0,0-10.29,27.54l70.85,228.3a4.64,4.64,0,0,0,9-.86l17.22-153.08a24,24,0,0,1,8-15.32l447.28-395.53C1583.84,482.84,1571.4,466.12,1559.26,473.66Z" transform="translate(-559.97 0.03)"/></svg>