<?xml version="1.0" encoding="UTF-8" standalone="no"?>
<!-- Created with Inkscape (http://www.inkscape.org/) -->

<svg
   xmlns:dc="http://purl.org/dc/elements/1.1/"
   xmlns:cc="http://creativecommons.org/ns#"
   xmlns:rdf="http://www.w3.org/1999/02/22-rdf-syntax-ns#"
   xmlns:svg="http://www.w3.org/2000/svg"
   xmlns="http://www.w3.org/2000/svg"
   xmlns:sodipodi="http://sodipodi.sourceforge.net/DTD/sodipodi-0.dtd"
   xmlns:inkscape="http://www.inkscape.org/namespaces/inkscape"
   version="1.1"
   id="svg10"
   width="42.666668"
   height="42.666668"
   viewBox="0 0 42.666668 42.666668"
   sodipodi:docname="icon-prod-video.svg"
   inkscape:version="0.92.1 r15371">
  <metadata
     id="metadata16">
    <rdf:RDF>
      <cc:Work
         rdf:about="">
        <dc:format>image/svg+xml</dc:format>
        <dc:type
           rdf:resource="http://purl.org/dc/dcmitype/StillImage" />
        <dc:title></dc:title>
      </cc:Work>
    </rdf:RDF>
  </metadata>
  <defs
     id="defs14" />
  <sodipodi:namedview
     pagecolor="#ffffff"
     bordercolor="#666666"
     borderopacity="1"
     objecttolerance="10"
     gridtolerance="10"
     guidetolerance="10"
     inkscape:pageopacity="0"
     inkscape:pageshadow="2"
     inkscape:window-width="1366"
     inkscape:window-height="705"
     id="namedview12"
     showgrid="false"
     inkscape:zoom="12.234375"
     inkscape:cx="19.902938"
     inkscape:cy="21.333334"
     inkscape:window-x="-8"
     inkscape:window-y="-8"
     inkscape:window-maximized="1"
     inkscape:current-layer="svg10" />
  <path
     style="fill:#000000;stroke-width:1.33333337"
     d="M 12.600566,40.791207 C -0.85257547,34.931385 -4.0296795,17.049287 6.5098045,6.5098041 15.15854,-2.1389303 27.50813,-2.1389303 36.156865,6.5098041 52.705168,23.058107 34.088562,50.150792 12.600566,40.791207 Z m 18.544373,-3.32172 c 5.820076,-3.837103 8.837492,-9.346527 8.837492,-16.136153 0,-18.9593839 -24.24553,-25.798132 -34.7852495,-9.811605 -3.308011,5.017554 -3.308011,14.605656 0,19.623209 5.7232945,8.681029 17.8793335,11.643961 25.9477575,6.324549 z m -15.67289,-5.108549 c -1.05031,-1.05031 -1.05031,-21.004898 0,-22.055208 0.79585,-0.7958496 17.8058,9.738864 17.8058,11.027604 0,1.28874 -17.00995,11.823454 -17.8058,11.027604 z m 11.782793,-9.126087 c 2.562008,-1.882294 2.562008,-1.92074 0,-3.803034 -1.423496,-1.045835 -4.238174,-2.879758 -6.25484,-4.075382 l -3.666667,-2.173864 v 8.150763 8.150763 l 3.666667,-2.173864 c 2.016666,-1.195624 4.831344,-3.029547 6.25484,-4.075382 z"
     id="path20"
     inkscape:connector-curvature="0" />
</svg>
