<svg id="Capa_1" data-name="Capa 1" xmlns="http://www.w3.org/2000/svg" viewBox="0 0 1440 1265.99"><title>icon-fav</title><path d="M1883.69,204.54c-75.4-75.4-175.23-116.62-281.77-116.62s-206.67,41.52-282.08,116.92l-39.38,39.38-40-40C1165.06,128.83,1064.63,87,958.09,87A395.83,395.83,0,0,0,676.62,203.62C601.22,279,559.7,379.16,560,485.7c0,106.54,41.82,206.37,117.23,281.77l573.31,573.31a40.91,40.91,0,0,0,58,.31l574.53-572.4c75.4-75.4,116.92-175.54,116.92-282.08C2000.31,380.07,1959.09,279.94,1883.69,204.54Zm-58.61,505.85-545.53,543.39L735.23,709.47c-59.83-59.83-92.8-139.21-92.8-223.77s32.67-163.93,92.5-223.46a316.18,316.18,0,0,1,447.23.31l69,69a41.09,41.09,0,0,0,58.31,0l68.38-68.38a314.81,314.81,0,0,1,223.77-92.8c84.26,0,163.63,33,223.46,92.5,59.83,59.83,92.5,139.21,92.5,223.77C1917.88,571.18,1884.91,650.55,1825.08,710.38Z" transform="translate(-560 -87.01)"/></svg>