<svg id="Layer_1" data-name="Layer 1" xmlns="http://www.w3.org/2000/svg" viewBox="0 0 595.28 595.28"><title>icon-user</title><path d="M297.64,8.5C133.26,8.5,0,141.76,0,306.14S133.26,603.78,297.64,603.78,595.28,470.51,595.28,306.14,462,8.5,297.64,8.5Zm0.91,438.06h-129c0-93,81.66-93,99.78-117.27l2.07-11.09C246,305.3,228,274.19,228,237.81c0-47.93,31.18-86.79,69.63-86.79s69.63,38.86,69.63,86.79c0,36.07-17.65,67-42.77,80.09l2.36,12.6c19.88,23.13,98.82,24.64,98.82,116.06H298.54Z" transform="translate(0 -8.5)"/></svg>