<svg id="Capa_1" data-name="Capa 1" xmlns="http://www.w3.org/2000/svg" viewBox="0 0 595.28 595.21"><path class="cls-1" d="M534.39,8.53H60.89A60.86,60.86,0,0,0,0,69.39V542.89a60.86,60.86,0,0,0,60.89,60.85H534.39a60.84,60.84,0,0,0,60.89-60.85V69.39A60.84,60.84,0,0,0,534.39,8.53ZM342.9,109h29v91.41c0,17.56.56,17,1.15,19.23s2.72,7.81,9.52,7.81c7.22,0,9.22-5.78,9.78-8.24,0.46-2.13,1-1.71,1-20V109h28.95v137.2H392.93l0.36-6.93-8.93-3.71a26.22,26.22,0,0,1-8.11,10.17A18.94,18.94,0,0,1,365,249.19c-5,0-9.06-1.08-12.14-3.22a17.6,17.6,0,0,1-6.5-7.88,39.24,39.24,0,0,1-2.82-11.36c-0.43-4.43-.66-13.59-0.66-27.24V109h0Zm-100.7,57c0-14.31,1.21-25.37,3.51-33.22a33,33,0,0,1,11.75-17.36c5.84-4.56,13.56-6.83,22.94-6.83,8,0,14.87,1.58,20.48,4.53A32.9,32.9,0,0,1,313.4,124.3a46,46,0,0,1,6,14.21c1.12,5,1.67,13.06,1.67,24v24.16c0,14.18-.56,24.52-1.58,30.89a44.63,44.63,0,0,1-6.4,16.54,29.76,29.76,0,0,1-12.44,11.19,43.13,43.13,0,0,1-18.61,3.84c-8,0-14.8-1.12-20.25-3.41a24.64,24.64,0,0,1-11.62-9,42.6,42.6,0,0,1-6-15.13c-1.31-6.37-2-16.28-2-29.51ZM174.42,60.16L198,136c4.1-19.83,12-47.27,18.35-75.85H237.7L210.2,168.38l-0.2.85v76.94H185V169.23l-0.2-.82L153.05,60.16h21.37Zm341.16,424.3c-3.74,34.14-34,62.1-68,64.4-100,4.3-199.79,4.3-299.81,0-34-2.3-64.27-30.26-68-64.4a1167.07,1167.07,0,0,1,0-161.06c3.74-34.14,34-62,68-64.43,100-4.27,199.76-4.27,299.81,0,34,2.4,64.27,30.3,68,64.43A1156.75,1156.75,0,0,1,515.59,484.47ZM281.66,232.68c4.2,0,7.48-2.53,9-6.89,0.69-2,1.51-5.81,1.51-16.18V150.16c0-12-.69-15.89-1.41-18.09-1.48-4.46-4.73-7.06-9-7.06s-7.45,2.49-9,6.93c-0.79,2.13-1.58,6.1-1.58,18.22V208c0,11.36.82,15.26,1.54,17.46C274.24,230,277.49,232.68,281.66,232.68ZM118.72,333.78H147V493h29.67V333.78h28.39v-30.2H118.72v30.2ZM259,438.65c0,17.1-.49,21.33-0.89,23.14-1,4.43-4.56,7.12-9.55,7.12-4.76,0-8.21-2.56-9.32-6.79-0.49-1.8-1-6-1-22.32V349.3h-28.1v98.6c0,13,.2,21.66.59,25.93a38.64,38.64,0,0,0,3,11.42,16.9,16.9,0,0,0,6.53,7.75c2.89,2,6.73,3,11.36,3a17.94,17.94,0,0,0,10.44-3.09,25.39,25.39,0,0,0,8.07-9.88l8.89,2.17-0.39,8h28.49V349.3H259.07Zm124.27-82.06a16.8,16.8,0,0,0-6.73-7.06A22.18,22.18,0,0,0,365.49,347a18.33,18.33,0,0,0-10,2.82,29.59,29.59,0,0,0-8.86,9.22l-8.57,13.23V303.61H310V493H336.5l1.64-8.44,2.3-11.75L346.68,483a32.17,32.17,0,0,0,9,10,17.13,17.13,0,0,0,9.71,3.09A17.84,17.84,0,0,0,378.09,491a23.94,23.94,0,0,0,7.12-12.77c1.12-5.51,1.67-14.24,1.67-13.65v-75.2c0,0.33,1.12-7.48-.56-23A26.33,26.33,0,0,0,383.31,356.59Zm-24.45,83.47c0,13.46-.69,17.56-1.25,19.69-1.31,4.63-4.63,7.32-9.09,7.32s-7.65-2.56-9-7.06c-0.66-2-1.38-6-1.38-18.35V403.56c0-12.8.66-16.64,1.25-18.48a9,9,0,0,1,8.93-6.79c4.43,0,7.78,2.69,9.19,7.25,0.63,2,1.45,6,1.45,18.09v36.47l-0.07,0h0Zm76.77-14.64h48.51V409.8c0-14.15-1.31-30.36-3.91-37.94a33.67,33.67,0,0,0-12.77-17.33c-5.94-4.2-13.75-6.4-23.17-6.4A38.05,38.05,0,0,0,424,353.47a29.48,29.48,0,0,0-12.41,15.39c-2.69,7.06-4.1,17.1-4.1,34.92v44.15a108.54,108.54,0,0,0,1.84,19.59,42.12,42.12,0,0,0,6.33,14.67,30,30,0,0,0,12.28,10A44.78,44.78,0,0,0,446.85,496c7.32,0,13.42-1.28,18.08-3.71a30.38,30.38,0,0,0,11.62-11.23,44.18,44.18,0,0,0,6.14-14.61c0.92-4.69,1.38-11.65,1.38-20.71V439H457.95V454.5c0,8.21-.56,13.55-1.71,16.77a10.3,10.3,0,0,1-10.14,6.93,9.11,9.11,0,0,1-9-5.87c-0.72-1.77-1.54-5-1.54-14.84v-32h0.07v0Zm0-20.19V389c0-11.95.62-10.14,1.15-11.75,1.25-3.84,4.63-6.1,9.32-6.1a8.78,8.78,0,0,1,8.7,6.66c0.53,1.71,1.18.07,1.18,11.19V409.8H435.66Z" transform="translate(0 -8.53)"/></svg>