<?xml version="1.0" encoding="UTF-8" standalone="no"?>
<!-- Generator: Adobe Illustrator 16.0.0, SVG Export Plug-In . SVG Version: 6.00 Build 0)  -->

<svg
   xmlns:dc="http://purl.org/dc/elements/1.1/"
   xmlns:cc="http://creativecommons.org/ns#"
   xmlns:rdf="http://www.w3.org/1999/02/22-rdf-syntax-ns#"
   xmlns:svg="http://www.w3.org/2000/svg"
   xmlns="http://www.w3.org/2000/svg"
   xmlns:sodipodi="http://sodipodi.sourceforge.net/DTD/sodipodi-0.dtd"
   xmlns:inkscape="http://www.inkscape.org/namespaces/inkscape"
   version="1.1"
   id="Слой_1"
   x="0px"
   y="0px"
   width="380"
   height="260"
   viewBox="0 0 380 260"
   enable-background="new 0 0 334 420"
   xml:space="preserve"
   sodipodi:docname="Logo_Footer.svg"
   inkscape:version="0.92.1 r15371"><metadata
   id="metadata26"><rdf:RDF><cc:Work
       rdf:about=""><dc:format>image/svg+xml</dc:format><dc:type
         rdf:resource="http://purl.org/dc/dcmitype/StillImage" /><dc:title></dc:title></cc:Work></rdf:RDF></metadata><defs
   id="defs24" /><sodipodi:namedview
   pagecolor="#ffffff"
   bordercolor="#666666"
   borderopacity="1"
   objecttolerance="10"
   gridtolerance="10"
   guidetolerance="10"
   inkscape:pageopacity="0"
   inkscape:pageshadow="2"
   inkscape:window-width="1366"
   inkscape:window-height="705"
   id="namedview22"
   showgrid="false"
   inkscape:zoom="1.2428571"
   inkscape:cx="122.29959"
   inkscape:cy="187.259"
   inkscape:window-x="-8"
   inkscape:window-y="-8"
   inkscape:window-maximized="1"
   inkscape:current-layer="Слой_1" />
<linearGradient
   id="SVGID_1_"
   gradientUnits="userSpaceOnUse"
   x1="118.1729"
   y1="54.701199"
   x2="238.9623"
   y2="400.0834"
   gradientTransform="matrix(0.67660366,0,0,0.69763577,71.134846,-17.142088)">
	<stop
   offset="0"
   style="stop-color:#F1D37D"
   id="stop10" />
	<stop
   offset="0.2737"
   style="stop-color:#FDF5B1"
   id="stop12" />
	<stop
   offset="0.4947"
   style="stop-color:#D09E4B"
   id="stop14" />
	<stop
   offset="1"
   style="stop-color:#D9AC52"
   id="stop16" />
</linearGradient>
<path
   d="m 189.87746,13.668299 c -0.0156,-8.8369527 -0.10757,-13.56762084 -0.42356,-13.56762084 -0.32206,0 -0.56497,4.71113434 -0.83833,13.55855184 -24.78128,-0.07116 -46.50025,15.28799 -61.15548,34.852488 -33.31529,44.474977 -35.52643,119.059212 -1.92901,163.910922 14.46241,19.30637 33.1935,31.57569 56.41997,33.51442 0.0244,9.01345 1.30041,14.06294 3.57449,14.06294 2.30925,0 3.94661,-4.663 4.28831,-13.81737 56.46596,-1.10785 84.94894,-66.98211 84.94894,-116.48495 C 275.09163,76.304828 248.78662,14.714753 189.87746,13.668299 Z m -7.0969,201.703241 c -15.18841,-16.30723 -7.58474,-46.74369 1.83561,-63.48904 z M 187.9498,36.599587 c -25.20348,-4.41743 -40.19771,24.353069 -41.24711,58.024459 -10.75326,3.793743 -18.96724,12.623724 -20.90909,27.048734 -4.69157,34.83714 30.85584,28.181 29.48638,-22.641769 7.76677,-0.07535 15.21752,0.647401 22.68451,2.964259 3.40399,1.05552 3.37016,-0.16395 0.454,-1.59899 -7.39866,-3.63398 -14.94752,-5.915947 -23.15406,-6.350574 0.5988,-16.947666 7.51639,-58.703259 32.64343,-55.94969 l -2.68816,92.905554 c -4.80457,11.19565 -10.16663,22.76594 -14.25873,34.25391 -7.36686,20.67862 -9.02995,49.32215 11.58276,58.28607 l -0.50474,17.44718 c -20.8678,-2.25267 -39.26196,-15.198 -51.97669,-32.17148 C 97.49397,165.3385 95.68475,93.34528 128.59204,49.411668 142.53278,30.802931 165.27749,17.189267 188.49718,17.645521 Z m -60.7387,85.276203 c 1.7781,-13.2188 9.69979,-19.64333 19.49566,-21.886228 2.53726,52.170598 -23.03904,48.195468 -19.49566,21.886228 z m 62.67109,-83.227247 c 25.07494,11.72656 7.13208,63.969017 0,81.848717 z m 0,202.682727 v -15.71285 c 13.68566,2.07407 29.52428,-4.02536 40.01365,-14.52269 2.21859,1.62201 4.92096,2.79055 8.10369,3.35075 1.1658,0.20301 1.24765,-0.27069 0.29298,-0.91112 -2.07921,-1.38969 -4.1706,-3.04866 -6.07793,-4.93228 3.72605,-4.31627 6.5644,-9.24716 8.07931,-14.5778 4.63949,-16.33793 -12.35343,-24.03355 -16.9868,-6.64358 -1.99327,7.48354 -0.96078,14.97545 3.0447,20.23562 -9.07594,11.60866 -23.2711,19.79053 -36.46893,13.14416 v -76.85993 c 5.73489,-7.60284 12.90283,-14.0755 21.03698,-18.80756 11.40752,22.32992 45.56789,18.34503 45.96911,2.98588 0.37349,-14.36781 -16.31629,-17.00348 -27.19134,-14.80244 -6.56576,1.32551 -12.91569,3.67794 -18.89077,6.82079 -1.4608,-3.34866 -2.30723,-7.24356 -2.30723,-11.73842 0,-1.91432 -1.24494,-1.88432 -1.24494,0 0,4.79345 0.70366,8.97787 1.93441,12.61186 -7.06511,3.92769 -13.56929,8.94369 -19.30689,14.72639 v -0.16325 c 12.74924,-19.7989 38.29238,-88.788101 0,-98.527096 V 17.67831 c 55.76296,2.066397 83.44418,60.45851 83.44418,112.01937 0,47.78945 -29.43159,110.90595 -83.44418,111.63359 z m 38.75111,-36.86238 c -3.48382,-4.78718 -5.44124,-10.50988 -3.80588,-16.65605 3.58667,-13.4853 13.5253,-7.9077 9.68963,4.5737 -1.23617,4.02326 -3.26664,8.17978 -5.88375,12.08235 z m -15.7175,-80.49112 c 5.49673,-2.9517 11.39671,-5.12623 17.57005,-6.3736 8.41087,-1.69805 25.4518,-2.18988 25.15816,10.47081 -0.26118,11.51099 -31.05476,13.42182 -42.72821,-4.09721 z"
   id="path19"
   inkscape:connector-curvature="0"
   style="clip-rule:evenodd;fill:url(#SVGID_1_);fill-rule:evenodd;stroke-width:0.68703932" />
</svg>