<?xml version="1.0" encoding="UTF-8" standalone="no"?>
<!-- Created with Inkscape (http://www.inkscape.org/) -->

<svg
   xmlns:dc="http://purl.org/dc/elements/1.1/"
   xmlns:cc="http://creativecommons.org/ns#"
   xmlns:rdf="http://www.w3.org/1999/02/22-rdf-syntax-ns#"
   xmlns:svg="http://www.w3.org/2000/svg"
   xmlns="http://www.w3.org/2000/svg"
   xmlns:sodipodi="http://sodipodi.sourceforge.net/DTD/sodipodi-0.dtd"
   xmlns:inkscape="http://www.inkscape.org/namespaces/inkscape"
   width="477.37021"
   height="38.429001"
   viewBox="0 0 126.3042 10.167673"
   version="1.1"
   id="svg331"
   inkscape:version="0.92.1 r15371"
   sodipodi:docname="Logo_Header.svg">
  <defs
     id="defs325">
    <linearGradient
       id="SVGID_1_"
       gradientUnits="userSpaceOnUse"
       x1="283.25729"
       y1="77.686501"
       x2="283.25729"
       y2="138.6338">
      <stop
         offset="0"
         style="stop-color:#F1D37D"
         id="stop10" />
      <stop
         offset="0.2737"
         style="stop-color:#FDF5B1"
         id="stop12" />
      <stop
         offset="0.4947"
         style="stop-color:#D09E4B"
         id="stop14" />
      <stop
         offset="1"
         style="stop-color:#D9AC52"
         id="stop16" />
    </linearGradient>
    <linearGradient
       id="SVGID_2_"
       gradientUnits="userSpaceOnUse"
       x1="343.8804"
       y1="76.495102"
       x2="343.8804"
       y2="138.6338">
      <stop
         offset="0"
         style="stop-color:#F1D37D"
         id="stop21" />
      <stop
         offset="0.2737"
         style="stop-color:#FDF5B1"
         id="stop23" />
      <stop
         offset="0.4947"
         style="stop-color:#D09E4B"
         id="stop25" />
      <stop
         offset="1"
         style="stop-color:#D9AC52"
         id="stop27" />
    </linearGradient>
    <linearGradient
       id="SVGID_3_"
       gradientUnits="userSpaceOnUse"
       x1="162.31149"
       y1="76.495102"
       x2="162.31149"
       y2="138.6338">
      <stop
         offset="0"
         style="stop-color:#F1D37D"
         id="stop32" />
      <stop
         offset="0.2737"
         style="stop-color:#FDF5B1"
         id="stop34" />
      <stop
         offset="0.4947"
         style="stop-color:#D09E4B"
         id="stop36" />
      <stop
         offset="1"
         style="stop-color:#D9AC52"
         id="stop38" />
    </linearGradient>
    <linearGradient
       id="SVGID_4_"
       gradientUnits="userSpaceOnUse"
       x1="426.2446"
       y1="76.496101"
       x2="426.2446"
       y2="139.81841">
      <stop
         offset="0"
         style="stop-color:#F1D37D"
         id="stop43" />
      <stop
         offset="0.2737"
         style="stop-color:#FDF5B1"
         id="stop45" />
      <stop
         offset="0.4947"
         style="stop-color:#D09E4B"
         id="stop47" />
      <stop
         offset="1"
         style="stop-color:#D9AC52"
         id="stop49" />
    </linearGradient>
    <linearGradient
       id="SVGID_5_"
       gradientUnits="userSpaceOnUse"
       x1="498.11569"
       y1="76.496101"
       x2="498.11569"
       y2="139.81841">
      <stop
         offset="0"
         style="stop-color:#F1D37D"
         id="stop54" />
      <stop
         offset="0.2737"
         style="stop-color:#FDF5B1"
         id="stop56" />
      <stop
         offset="0.4947"
         style="stop-color:#D09E4B"
         id="stop58" />
      <stop
         offset="1"
         style="stop-color:#D9AC52"
         id="stop60" />
    </linearGradient>
    <linearGradient
       id="SVGID_6_"
       gradientUnits="userSpaceOnUse"
       x1="572.2832"
       y1="77.686501"
       x2="572.2832"
       y2="139.81931">
      <stop
         offset="0"
         style="stop-color:#F1D37D"
         id="stop65" />
      <stop
         offset="0.2737"
         style="stop-color:#FDF5B1"
         id="stop67" />
      <stop
         offset="0.4947"
         style="stop-color:#D09E4B"
         id="stop69" />
      <stop
         offset="1"
         style="stop-color:#D9AC52"
         id="stop71" />
    </linearGradient>
    <linearGradient
       id="SVGID_7_"
       gradientUnits="userSpaceOnUse"
       x1="640.31842"
       y1="75.675797"
       x2="640.31842"
       y2="138.6338">
      <stop
         offset="0"
         style="stop-color:#F1D37D"
         id="stop76" />
      <stop
         offset="0.2737"
         style="stop-color:#FDF5B1"
         id="stop78" />
      <stop
         offset="0.4947"
         style="stop-color:#D09E4B"
         id="stop80" />
      <stop
         offset="1"
         style="stop-color:#D9AC52"
         id="stop82" />
    </linearGradient>
    <linearGradient
       id="SVGID_8_"
       gradientUnits="userSpaceOnUse"
       x1="709.82709"
       y1="77.686501"
       x2="709.82709"
       y2="139.81931">
      <stop
         offset="0"
         style="stop-color:#F1D37D"
         id="stop87" />
      <stop
         offset="0.2737"
         style="stop-color:#FDF5B1"
         id="stop89" />
      <stop
         offset="0.4947"
         style="stop-color:#D09E4B"
         id="stop91" />
      <stop
         offset="1"
         style="stop-color:#D9AC52"
         id="stop93" />
    </linearGradient>
    <linearGradient
       id="SVGID_9_"
       gradientUnits="userSpaceOnUse"
       x1="781.26862"
       y1="77.686501"
       x2="781.26862"
       y2="138.9053">
      <stop
         offset="0"
         style="stop-color:#F1D37D"
         id="stop98" />
      <stop
         offset="0.2737"
         style="stop-color:#FDF5B1"
         id="stop100" />
      <stop
         offset="0.4947"
         style="stop-color:#D09E4B"
         id="stop102" />
      <stop
         offset="1"
         style="stop-color:#D9AC52"
         id="stop104" />
    </linearGradient>
    <linearGradient
       id="SVGID_10_"
       gradientUnits="userSpaceOnUse"
       x1="841.74219"
       y1="77.686501"
       x2="841.74219"
       y2="138.6338">
      <stop
         offset="0"
         style="stop-color:#F1D37D"
         id="stop109" />
      <stop
         offset="0.2737"
         style="stop-color:#FDF5B1"
         id="stop111" />
      <stop
         offset="0.4947"
         style="stop-color:#D09E4B"
         id="stop113" />
      <stop
         offset="1"
         style="stop-color:#D9AC52"
         id="stop115" />
    </linearGradient>
    <linearGradient
       id="SVGID_11_"
       gradientUnits="userSpaceOnUse"
       x1="223.813"
       y1="77.686501"
       x2="223.813"
       y2="138.6338">
      <stop
         offset="0"
         style="stop-color:#F1D37D"
         id="stop120" />
      <stop
         offset="0.2737"
         style="stop-color:#FDF5B1"
         id="stop122" />
      <stop
         offset="0.4947"
         style="stop-color:#D09E4B"
         id="stop124" />
      <stop
         offset="1"
         style="stop-color:#D9AC52"
         id="stop126" />
    </linearGradient>
  </defs>
  <sodipodi:namedview
     id="base"
     pagecolor="#ffffff"
     bordercolor="#666666"
     borderopacity="1.0"
     inkscape:pageopacity="0.0"
     inkscape:pageshadow="2"
     inkscape:zoom="0.35"
     inkscape:cx="351.54223"
     inkscape:cy="329.2145"
     inkscape:document-units="mm"
     inkscape:current-layer="layer1"
     showgrid="false"
     showguides="false"
     units="px"
     inkscape:window-width="1366"
     inkscape:window-height="705"
     inkscape:window-x="-8"
     inkscape:window-y="-8"
     inkscape:window-maximized="1" />
  <metadata
     id="metadata328">
    <rdf:RDF>
      <cc:Work
         rdf:about="">
        <dc:format>image/svg+xml</dc:format>
        <dc:type
           rdf:resource="http://purl.org/dc/dcmitype/StillImage" />
        <dc:title></dc:title>
      </cc:Work>
    </rdf:RDF>
  </metadata>
  <g
     inkscape:label="Layer 1"
     inkscape:groupmode="layer"
     id="layer1"
     transform="translate(-12.821118,-286.2465)">
    <g
       transform="matrix(0.17129008,0,0,0.158515,-9.6096282,274.25072)"
       id="g131">
      <linearGradient
         id="linearGradient211"
         gradientUnits="userSpaceOnUse"
         x1="283.25729"
         y1="77.686501"
         x2="283.25729"
         y2="138.6338">
        <stop
           offset="0"
           style="stop-color:#F1D37D"
           id="stop203" />
        <stop
           offset="0.2737"
           style="stop-color:#FDF5B1"
           id="stop205" />
        <stop
           offset="0.4947"
           style="stop-color:#D09E4B"
           id="stop207" />
        <stop
           offset="1"
           style="stop-color:#D9AC52"
           id="stop209" />
      </linearGradient>
      <path
         style="clip-rule:evenodd;fill:url(#SVGID_1_);fill-rule:evenodd"
         inkscape:connector-curvature="0"
         d="m 278.683,91.14 c -0.016,-2.102 0.044,-3.795 0.147,-5.047 0.114,-1.251 0.322,-2.197 0.643,-2.853 0.322,-0.643 0.778,-1.099 1.404,-1.373 0.627,-0.259 1.447,-0.473 2.471,-0.609 l 2.379,-0.363 c 0.244,-0.202 0.412,-0.523 0.489,-0.964 0.073,-0.427 0.073,-0.856 0,-1.293 -0.078,-0.428 -0.246,-0.751 -0.489,-0.951 -2.288,0.097 -4.577,0.152 -6.833,0.2 -2.272,0.062 -4.516,0.076 -6.711,0.076 -4.39,0 -8.966,-0.091 -13.725,-0.276 -0.365,0.2 -0.608,0.523 -0.729,0.951 -0.138,0.437 -0.154,0.866 -0.05,1.293 0.092,0.44 0.288,0.762 0.595,0.964 l 2.655,0.363 c 1.023,0.122 1.849,0.305 2.47,0.579 0.624,0.262 1.081,0.718 1.405,1.37 0.319,0.66 0.534,1.602 0.639,2.869 0.106,1.269 0.169,2.962 0.154,5.063 v 34.038 c 0.015,2.105 -0.048,3.787 -0.154,5.049 -0.105,1.249 -0.32,2.196 -0.639,2.838 -0.324,0.643 -0.781,1.086 -1.405,1.344 -0.621,0.258 -1.447,0.44 -2.47,0.565 l -3.478,0.454 c -0.243,0.198 -0.38,0.516 -0.441,0.946 -0.045,0.439 0,0.866 0.121,1.298 0.123,0.443 0.32,0.764 0.599,0.962 2.818,-0.097 5.411,-0.168 7.775,-0.218 2.364,-0.044 4.59,-0.057 6.679,-0.057 h 12.263 c 1.89,0 3.81,0 5.78,0.013 1.969,0.018 3.906,0.03 5.781,0.044 1.895,0.032 3.644,0.063 5.278,0.096 1.647,0.025 3.079,0.073 4.3,0.122 0.32,-0.646 0.688,-1.541 1.096,-2.69 0.4,-1.155 0.795,-2.455 1.178,-3.871 0.395,-1.417 0.73,-2.851 1.04,-4.285 0.285,-1.449 0.498,-2.773 0.624,-3.975 -0.233,-0.374 -0.583,-0.646 -1.023,-0.845 -0.459,-0.181 -0.915,-0.262 -1.373,-0.212 -0.459,0.031 -0.825,0.196 -1.083,0.503 -1.071,2.104 -2.059,3.839 -2.977,5.216 -0.9,1.361 -1.798,2.425 -2.696,3.204 -0.888,0.776 -1.832,1.343 -2.838,1.69 -1.008,0.351 -2.154,0.579 -3.402,0.672 -1.268,0.079 -2.731,0.125 -4.378,0.109 -1.663,0 -3.033,-0.05 -4.134,-0.143 -1.098,-0.09 -1.997,-0.228 -2.684,-0.423 -0.687,-0.19 -1.234,-0.432 -1.647,-0.703 -0.411,-0.294 -0.763,-0.624 -1.053,-1.021 -0.579,-0.733 -0.989,-1.83 -1.219,-3.28 -0.229,-1.466 -0.349,-3.261 -0.333,-5.414 V 91.14 Z"
         id="path19" />
      <linearGradient
         id="linearGradient222"
         gradientUnits="userSpaceOnUse"
         x1="343.8804"
         y1="76.495102"
         x2="343.8804"
         y2="138.6338">
        <stop
           offset="0"
           style="stop-color:#F1D37D"
           id="stop214" />
        <stop
           offset="0.2737"
           style="stop-color:#FDF5B1"
           id="stop216" />
        <stop
           offset="0.4947"
           style="stop-color:#D09E4B"
           id="stop218" />
        <stop
           offset="1"
           style="stop-color:#D9AC52"
           id="stop220" />
      </linearGradient>
      <path
         style="clip-rule:evenodd;fill:url(#SVGID_2_);fill-rule:evenodd"
         inkscape:connector-curvature="0"
         d="m 375.18,136.344 c -0.09,-0.443 -0.227,-0.748 -0.412,-0.916 l -3.475,-0.549 c -1.1,-0.167 -2.001,-0.551 -2.674,-1.129 -0.669,-0.597 -1.261,-1.447 -1.766,-2.592 -0.503,-1.127 -1.067,-2.607 -1.694,-4.422 L 352.716,90.865 c -0.764,-2.152 -1.407,-3.995 -1.927,-5.549 -0.517,-1.543 -0.959,-2.887 -1.31,-3.995 -0.35,-1.129 -0.64,-2.122 -0.882,-2.992 -0.169,-0.668 -0.429,-1.158 -0.747,-1.435 -0.322,-0.272 -0.778,-0.411 -1.359,-0.398 -0.047,0.023 -0.288,0.265 -0.698,0.719 -0.415,0.459 -0.994,1.01 -1.696,1.647 -0.717,0.642 -1.554,1.269 -2.5,1.847 -0.931,0.579 -1.966,1.006 -3.067,1.28 0.091,0.867 -0.016,1.847 -0.288,2.913 -0.274,1.068 -0.691,2.303 -1.222,3.722 -0.532,1.421 -1.159,3.081 -1.875,4.987 l -8.328,22.327 c -0.822,2.181 -1.571,4.163 -2.242,5.914 -0.686,1.741 -1.31,3.343 -1.89,4.763 -0.564,1.434 -1.116,2.759 -1.631,3.964 -0.521,1.176 -1.07,2.075 -1.647,2.714 -0.579,0.625 -1.205,1.086 -1.86,1.34 -0.655,0.274 -1.34,0.447 -2.075,0.521 L 313,135.428 c -0.212,0.259 -0.364,0.611 -0.44,1.035 -0.064,0.427 -0.045,0.841 0.063,1.254 0.104,0.411 0.318,0.719 0.654,0.917 1.388,0 2.591,-0.028 3.627,-0.082 1.023,-0.04 2.001,-0.073 2.899,-0.116 0.917,-0.046 1.878,-0.076 2.897,-0.076 1.906,0.043 3.723,0.076 5.414,0.106 1.694,0.025 3.339,0.071 4.927,0.168 0.304,-0.168 0.488,-0.479 0.58,-0.886 0.078,-0.428 0.078,-0.871 0,-1.314 -0.077,-0.44 -0.216,-0.777 -0.397,-1.006 l -2.746,-0.454 c -1.284,-0.231 -2.222,-0.476 -2.837,-0.751 -0.61,-0.262 -0.914,-0.531 -0.914,-0.808 -0.013,-0.333 0.029,-0.747 0.104,-1.233 0.095,-0.473 0.262,-1.162 0.534,-2.062 l 3.57,-10.613 c 0.17,-0.563 0.355,-0.992 0.536,-1.251 0.196,-0.259 0.473,-0.427 0.852,-0.487 0.371,-0.079 0.918,-0.108 1.633,-0.092 h 10.891 c 1.051,-0.017 1.877,0.029 2.458,0.105 0.592,0.06 1.019,0.232 1.311,0.461 0.27,0.241 0.485,0.592 0.623,1.081 l 2.47,7.866 c 0.549,1.694 0.975,3.081 1.282,4.15 0.304,1.052 0.454,1.754 0.454,2.074 0.018,0.186 -0.043,0.378 -0.166,0.565 -0.122,0.196 -0.368,0.379 -0.729,0.547 -0.351,0.172 -0.871,0.321 -1.573,0.446 l -2.924,0.454 c -0.342,0.259 -0.537,0.611 -0.629,1.035 -0.078,0.427 -0.045,0.841 0.092,1.254 0.134,0.411 0.38,0.719 0.717,0.917 1.387,-0.062 2.744,-0.109 4.056,-0.155 1.313,-0.043 2.638,-0.076 3.994,-0.089 1.358,-0.018 2.795,-0.03 4.303,-0.03 2.396,0 4.792,0.03 7.185,0.076 2.396,0.03 4.693,0.102 6.908,0.198 0.276,-0.198 0.44,-0.539 0.518,-0.979 0.06,-0.441 0.06,-0.882 -0.017,-1.309 z m -29.223,-23.667 c -0.352,0.106 -0.871,0.165 -1.57,0.152 h -8.603 c -0.761,0.013 -1.328,-0.046 -1.692,-0.17 -0.381,-0.122 -0.578,-0.366 -0.606,-0.764 -0.019,-0.396 0.104,-1.006 0.375,-1.817 l 2.29,-6.859 c 0.473,-1.421 0.961,-2.865 1.466,-4.319 0.518,-1.46 0.989,-2.8 1.431,-4.021 0.443,-1.225 0.779,-2.196 1.039,-2.915 0.275,0.668 0.627,1.589 1.051,2.772 0.429,1.195 0.872,2.492 1.342,3.906 0.473,1.406 0.915,2.776 1.357,4.116 l 2.38,7.409 c 0.246,0.78 0.351,1.359 0.317,1.744 -0.027,0.382 -0.226,0.64 -0.577,0.766 z"
         id="path30" />
      <linearGradient
         id="linearGradient233"
         gradientUnits="userSpaceOnUse"
         x1="162.31149"
         y1="76.495102"
         x2="162.31149"
         y2="138.6338">
        <stop
           offset="0"
           style="stop-color:#F1D37D"
           id="stop225" />
        <stop
           offset="0.2737"
           style="stop-color:#FDF5B1"
           id="stop227" />
        <stop
           offset="0.4947"
           style="stop-color:#D09E4B"
           id="stop229" />
        <stop
           offset="1"
           style="stop-color:#D9AC52"
           id="stop231" />
      </linearGradient>
      <path
         style="clip-rule:evenodd;fill:url(#SVGID_3_);fill-rule:evenodd"
         inkscape:connector-curvature="0"
         d="m 193.612,136.344 c -0.094,-0.443 -0.23,-0.748 -0.411,-0.916 l -3.481,-0.549 c -1.098,-0.167 -1.996,-0.551 -2.669,-1.129 -0.671,-0.597 -1.263,-1.447 -1.769,-2.592 -0.502,-1.127 -1.065,-2.607 -1.694,-4.422 L 171.146,90.865 c -0.765,-2.152 -1.407,-3.995 -1.922,-5.549 -0.518,-1.543 -0.964,-2.887 -1.312,-3.995 -0.355,-1.129 -0.644,-2.122 -0.888,-2.992 -0.168,-0.668 -0.427,-1.158 -0.747,-1.435 -0.32,-0.272 -0.777,-0.411 -1.357,-0.398 -0.047,0.023 -0.288,0.265 -0.703,0.719 -0.407,0.459 -0.988,1.01 -1.689,1.647 -0.718,0.642 -1.556,1.269 -2.504,1.847 -0.929,0.579 -1.966,1.006 -3.062,1.28 0.092,0.867 -0.017,1.847 -0.293,2.913 -0.273,1.068 -0.687,2.303 -1.22,3.722 -0.535,1.421 -1.161,3.081 -1.875,4.987 l -8.326,22.327 c -0.825,2.181 -1.57,4.163 -2.243,5.914 -0.685,1.741 -1.311,3.343 -1.892,4.763 -0.563,1.434 -1.113,2.759 -1.633,3.964 -0.519,1.176 -1.065,2.075 -1.649,2.714 -0.576,0.625 -1.203,1.086 -1.857,1.34 -0.653,0.274 -1.342,0.447 -2.073,0.521 l -2.47,0.274 c -0.215,0.259 -0.365,0.611 -0.446,1.035 -0.058,0.427 -0.042,0.841 0.064,1.254 0.108,0.411 0.32,0.719 0.655,0.917 1.388,0 2.594,-0.028 3.627,-0.082 1.025,-0.04 2.001,-0.073 2.902,-0.116 0.915,-0.046 1.875,-0.076 2.894,-0.076 1.908,0.043 3.725,0.076 5.417,0.106 1.691,0.025 3.337,0.071 4.927,0.168 0.301,-0.168 0.486,-0.479 0.576,-0.886 0.076,-0.428 0.076,-0.871 0,-1.314 -0.076,-0.44 -0.211,-0.777 -0.398,-1.006 l -2.742,-0.454 c -1.279,-0.231 -2.226,-0.476 -2.84,-0.751 -0.61,-0.262 -0.911,-0.531 -0.911,-0.808 -0.019,-0.333 0.028,-0.747 0.105,-1.233 0.091,-0.473 0.259,-1.162 0.534,-2.062 l 3.565,-10.613 c 0.173,-0.563 0.354,-0.992 0.537,-1.251 0.197,-0.259 0.471,-0.427 0.854,-0.487 0.367,-0.079 0.914,-0.108 1.631,-0.092 h 10.89 c 1.056,-0.017 1.877,0.029 2.455,0.105 0.595,0.06 1.023,0.232 1.313,0.461 0.272,0.241 0.487,0.592 0.625,1.081 l 2.47,7.866 c 0.546,1.694 0.976,3.081 1.281,4.15 0.307,1.052 0.457,1.754 0.457,2.074 0.014,0.186 -0.044,0.378 -0.167,0.565 -0.123,0.196 -0.367,0.379 -0.732,0.547 -0.351,0.172 -0.873,0.321 -1.574,0.446 l -2.924,0.454 c -0.337,0.259 -0.535,0.611 -0.628,1.035 -0.073,0.427 -0.045,0.841 0.094,1.254 0.136,0.411 0.38,0.719 0.716,0.917 1.387,-0.062 2.743,-0.109 4.058,-0.155 1.311,-0.043 2.637,-0.076 3.997,-0.089 1.359,-0.018 2.792,-0.03 4.302,-0.03 2.396,0 4.79,0.03 7.18,0.076 2.397,0.03 4.7,0.102 6.91,0.198 0.276,-0.198 0.443,-0.539 0.52,-0.979 0.065,-0.441 0.065,-0.882 -0.013,-1.309 z m -29.226,-23.667 c -0.351,0.106 -0.869,0.165 -1.57,0.152 h -8.603 c -0.76,0.013 -1.324,-0.046 -1.689,-0.17 -0.385,-0.122 -0.581,-0.366 -0.61,-0.764 -0.021,-0.396 0.105,-1.006 0.379,-1.817 l 2.285,-6.859 c 0.473,-1.421 0.963,-2.865 1.464,-4.319 0.521,-1.46 0.995,-2.8 1.434,-4.021 0.44,-1.225 0.779,-2.196 1.04,-2.915 0.275,0.668 0.625,1.589 1.049,2.772 0.429,1.195 0.872,2.492 1.343,3.906 0.473,1.406 0.915,2.776 1.355,4.116 l 2.383,7.409 c 0.244,0.78 0.347,1.359 0.318,1.744 -0.028,0.382 -0.225,0.64 -0.578,0.766 z"
         id="path41" />
      <linearGradient
         id="linearGradient244"
         gradientUnits="userSpaceOnUse"
         x1="426.2446"
         y1="76.496101"
         x2="426.2446"
         y2="139.81841">
        <stop
           offset="0"
           style="stop-color:#F1D37D"
           id="stop236" />
        <stop
           offset="0.2737"
           style="stop-color:#FDF5B1"
           id="stop238" />
        <stop
           offset="0.4947"
           style="stop-color:#D09E4B"
           id="stop240" />
        <stop
           offset="1"
           style="stop-color:#D9AC52"
           id="stop242" />
      </linearGradient>
      <path
         style="clip-rule:evenodd;fill:url(#SVGID_4_);fill-rule:evenodd"
         inkscape:connector-curvature="0"
         d="m 433.52,76.496 c -3.186,0 -6.315,0.312 -9.364,0.916 -3.049,0.597 -5.935,1.513 -8.634,2.719 -2.716,1.203 -5.168,2.713 -7.347,4.513 -2.125,1.734 -4.014,3.767 -5.676,6.112 -1.663,2.354 -2.974,5.036 -3.937,8.039 -0.962,3.018 -1.444,6.376 -1.463,10.1 0.019,3.765 0.534,7.15 1.556,10.143 1.008,2.988 2.38,5.608 4.119,7.899 1.754,2.282 3.736,4.265 5.948,5.93 2.178,1.618 4.606,2.929 7.274,3.965 2.67,1.019 5.473,1.774 8.418,2.257 2.942,0.49 5.919,0.73 8.926,0.73 2.378,-0.013 4.679,-0.211 6.892,-0.575 2.213,-0.368 4.283,-0.808 6.25,-1.311 1.969,-0.52 3.784,-1.025 5.432,-1.499 0.426,-0.719 0.869,-1.771 1.323,-3.156 0.46,-1.388 0.871,-3.035 1.254,-4.941 0.379,-1.906 0.669,-3.998 0.897,-6.268 -0.2,-0.365 -0.534,-0.64 -0.976,-0.822 -0.456,-0.17 -0.931,-0.244 -1.405,-0.218 -0.473,0.018 -0.837,0.156 -1.095,0.4 -0.612,1.586 -1.404,3.184 -2.412,4.833 -0.991,1.647 -2.227,3.193 -3.704,4.589 -1.464,1.407 -3.25,2.549 -5.311,3.419 -2.074,0.871 -4.481,1.313 -7.243,1.341 -2.211,0 -4.361,-0.398 -6.452,-1.155 -2.087,-0.778 -4.041,-1.924 -5.857,-3.452 -1.814,-1.522 -3.416,-3.411 -4.785,-5.673 -1.374,-2.254 -2.458,-4.86 -3.233,-7.818 -0.764,-2.967 -1.161,-6.254 -1.175,-9.901 0.015,-3.647 0.427,-6.909 1.218,-9.793 0.795,-2.878 1.879,-5.394 3.266,-7.552 1.385,-2.127 2.975,-3.914 4.772,-5.335 1.782,-1.419 3.688,-2.468 5.705,-3.17 2.011,-0.701 4.042,-1.052 6.086,-1.052 4.441,0.016 8.111,1.128 10.997,3.349 2.896,2.218 4.956,5.468 6.206,9.739 0.244,0.271 0.61,0.406 1.1,0.439 0.504,0.033 0.992,-0.062 1.463,-0.244 0.456,-0.195 0.763,-0.473 0.915,-0.84 -0.201,-1.341 -0.383,-2.757 -0.518,-4.239 -0.139,-1.477 -0.261,-2.899 -0.338,-4.27 -0.09,-1.376 -0.152,-2.565 -0.182,-3.584 -0.044,-1.02 -0.057,-1.754 -0.057,-2.178 -0.69,-0.065 -1.622,-0.211 -2.794,-0.462 -1.177,-0.229 -2.565,-0.505 -4.165,-0.805 -1.6,-0.292 -3.399,-0.553 -5.398,-0.765 -1.997,-0.228 -4.162,-0.334 -6.496,-0.354"
         id="path52" />
      <linearGradient
         id="linearGradient255"
         gradientUnits="userSpaceOnUse"
         x1="498.11569"
         y1="76.496101"
         x2="498.11569"
         y2="139.81841">
        <stop
           offset="0"
           style="stop-color:#F1D37D"
           id="stop247" />
        <stop
           offset="0.2737"
           style="stop-color:#FDF5B1"
           id="stop249" />
        <stop
           offset="0.4947"
           style="stop-color:#D09E4B"
           id="stop251" />
        <stop
           offset="1"
           style="stop-color:#D9AC52"
           id="stop253" />
      </linearGradient>
      <path
         style="clip-rule:evenodd;fill:url(#SVGID_5_);fill-rule:evenodd"
         inkscape:connector-curvature="0"
         d="m 528.179,95.154 c -1.554,-3.846 -3.736,-7.152 -6.587,-9.929 -2.837,-2.779 -6.224,-4.927 -10.142,-6.439 -3.92,-1.513 -8.283,-2.267 -13.06,-2.29 -3.826,0.023 -7.409,0.553 -10.735,1.604 -3.322,1.053 -6.328,2.546 -9.028,4.484 -2.685,1.937 -4.987,4.239 -6.91,6.89 -1.923,2.67 -3.397,5.617 -4.439,8.846 -1.021,3.221 -1.54,6.652 -1.555,10.299 0.015,4.786 0.81,9.104 2.382,12.946 1.56,3.831 3.754,7.104 6.604,9.821 2.835,2.714 6.191,4.803 10.049,6.252 3.862,1.432 8.101,2.167 12.72,2.18 4.938,-0.013 9.426,-0.728 13.473,-2.18 4.04,-1.449 7.515,-3.551 10.432,-6.315 2.91,-2.742 5.17,-6.098 6.733,-10.033 1.588,-3.935 2.384,-8.402 2.397,-13.402 -0.016,-4.669 -0.794,-8.909 -2.334,-12.734 z m -13.224,24.323 c -0.609,3.207 -1.588,6.011 -2.911,8.433 -1.327,2.412 -3.053,4.289 -5.172,5.646 -2.104,1.353 -4.668,2.041 -7.66,2.056 -2.484,-0.015 -4.665,-0.47 -6.57,-1.371 -1.906,-0.916 -3.552,-2.138 -4.943,-3.69 -1.388,-1.554 -2.562,-3.325 -3.506,-5.295 -0.947,-1.981 -1.696,-4.053 -2.257,-6.233 -0.567,-2.184 -0.959,-4.333 -1.203,-6.483 -0.259,-2.137 -0.367,-4.146 -0.367,-6.025 0,-3.843 0.381,-7.337 1.113,-10.474 0.745,-3.16 1.844,-5.874 3.309,-8.161 1.466,-2.287 3.267,-4.041 5.429,-5.292 2.152,-1.238 4.622,-1.862 7.447,-1.876 2.269,0.014 4.357,0.482 6.249,1.445 1.894,0.946 3.585,2.294 5.067,4.031 1.478,1.737 2.727,3.783 3.748,6.145 1.022,2.363 1.804,4.957 2.334,7.777 0.537,2.84 0.812,5.825 0.812,8.968 0.014,3.721 -0.291,7.195 -0.919,10.399 z"
         id="path63" />
      <linearGradient
         id="linearGradient266"
         gradientUnits="userSpaceOnUse"
         x1="572.2832"
         y1="77.686501"
         x2="572.2832"
         y2="139.81931">
        <stop
           offset="0"
           style="stop-color:#F1D37D"
           id="stop258" />
        <stop
           offset="0.2737"
           style="stop-color:#FDF5B1"
           id="stop260" />
        <stop
           offset="0.4947"
           style="stop-color:#D09E4B"
           id="stop262" />
        <stop
           offset="1"
           style="stop-color:#D9AC52"
           id="stop264" />
      </linearGradient>
      <path
         style="clip-rule:evenodd;fill:url(#SVGID_6_);fill-rule:evenodd"
         inkscape:connector-curvature="0"
         d="m 547.387,114.017 c -0.015,4.974 0.52,9.18 1.602,12.608 1.083,3.422 2.805,6.119 5.168,8.074 1.647,1.327 3.434,2.36 5.355,3.111 1.904,0.741 3.937,1.28 6.069,1.585 2.151,0.288 4.375,0.44 6.696,0.423 2.485,0 4.85,-0.258 7.094,-0.748 2.255,-0.498 4.314,-1.247 6.191,-2.224 1.876,-0.979 3.477,-2.181 4.833,-3.617 1.663,-1.876 2.914,-3.96 3.753,-6.28 0.855,-2.316 1.418,-4.822 1.71,-7.473 0.289,-2.654 0.41,-5.414 0.395,-8.3 V 100.93 c 0,-1.857 0.03,-3.675 0.076,-5.415 0.047,-1.735 0.121,-3.353 0.229,-4.848 0.106,-1.492 0.258,-2.79 0.428,-3.906 0.181,-1.111 0.396,-1.965 0.639,-2.573 0.276,-0.643 0.658,-1.143 1.115,-1.514 0.471,-0.38 1.037,-0.685 1.676,-0.916 0.645,-0.226 1.357,-0.424 2.149,-0.596 l 1.651,-0.361 c 0.24,-0.257 0.394,-0.594 0.441,-1.005 0.059,-0.435 0.043,-0.827 -0.032,-1.224 -0.093,-0.396 -0.23,-0.686 -0.409,-0.886 -1.74,0.097 -3.448,0.152 -5.159,0.2 -1.706,0.062 -3.396,0.076 -5.095,0.076 -1.234,0 -2.483,-0.015 -3.749,-0.03 -1.251,-0.018 -2.576,-0.046 -3.965,-0.094 -1.388,-0.038 -2.897,-0.089 -4.548,-0.152 -0.18,0.2 -0.316,0.49 -0.409,0.886 -0.076,0.396 -0.091,0.789 -0.028,1.224 0.057,0.411 0.197,0.748 0.438,1.005 l 2.474,0.457 c 0.823,0.137 1.603,0.317 2.288,0.533 0.701,0.215 1.309,0.503 1.83,0.883 0.517,0.371 0.913,0.871 1.189,1.514 0.258,0.608 0.473,1.462 0.642,2.573 0.179,1.116 0.318,2.414 0.424,3.906 0.109,1.495 0.186,3.112 0.23,4.848 0.061,1.74 0.075,3.558 0.075,5.415 v 11.072 c 0.016,3.16 -0.229,6.102 -0.729,8.849 -0.522,2.743 -1.343,5.168 -2.517,7.244 -1.161,2.088 -2.729,3.719 -4.698,4.894 -1.968,1.178 -4.423,1.784 -7.339,1.8 -2.76,-0.016 -5.064,-0.46 -6.908,-1.317 -1.846,-0.846 -3.308,-2.023 -4.404,-3.521 -1.117,-1.495 -1.939,-3.199 -2.473,-5.119 -0.549,-1.925 -0.901,-3.95 -1.08,-6.103 -0.174,-2.135 -0.245,-4.285 -0.229,-6.453 V 91.14 c -0.016,-2.102 0.044,-3.795 0.149,-5.047 0.108,-1.251 0.321,-2.21 0.643,-2.853 0.319,-0.655 0.778,-1.128 1.4,-1.403 0.627,-0.29 1.452,-0.503 2.472,-0.675 l 2.199,-0.361 c 0.241,-0.197 0.409,-0.519 0.487,-0.929 0.075,-0.411 0.075,-0.841 0,-1.251 -0.078,-0.43 -0.246,-0.734 -0.487,-0.935 -2.199,0.097 -4.408,0.152 -6.65,0.2 -2.229,0.062 -4.473,0.076 -6.712,0.076 -2.2,0 -4.424,-0.015 -6.681,-0.076 -2.242,-0.048 -4.469,-0.104 -6.68,-0.2 -0.336,0.2 -0.55,0.505 -0.656,0.935 -0.104,0.41 -0.119,0.84 -0.03,1.251 0.093,0.41 0.262,0.731 0.501,0.929 l 2.292,0.457 c 1.02,0.183 1.846,0.411 2.467,0.688 0.633,0.284 1.084,0.745 1.401,1.373 0.326,0.626 0.536,1.568 0.646,2.8 0.104,1.238 0.166,2.919 0.15,5.021 z"
         id="path74" />
      <linearGradient
         id="linearGradient277"
         gradientUnits="userSpaceOnUse"
         x1="640.31842"
         y1="75.675797"
         x2="640.31842"
         y2="138.6338">
        <stop
           offset="0"
           style="stop-color:#F1D37D"
           id="stop269" />
        <stop
           offset="0.2737"
           style="stop-color:#FDF5B1"
           id="stop271" />
        <stop
           offset="0.4947"
           style="stop-color:#D09E4B"
           id="stop273" />
        <stop
           offset="1"
           style="stop-color:#D9AC52"
           id="stop275" />
      </linearGradient>
      <path
         style="clip-rule:evenodd;fill:url(#SVGID_7_);fill-rule:evenodd"
         inkscape:connector-curvature="0"
         d="m 633.864,125.178 c 0.017,2.105 -0.044,3.8 -0.15,5.064 -0.106,1.248 -0.324,2.213 -0.642,2.853 -0.317,0.646 -0.774,1.102 -1.403,1.36 -0.624,0.244 -1.446,0.424 -2.471,0.519 l -4.116,0.454 c -0.245,0.198 -0.412,0.516 -0.488,0.946 -0.076,0.439 -0.076,0.866 0,1.313 0.076,0.428 0.243,0.748 0.488,0.946 2.135,-0.062 4.104,-0.109 5.9,-0.155 1.816,-0.043 3.51,-0.076 5.097,-0.089 1.583,-0.018 3.11,-0.03 4.562,-0.03 2.041,0 4.25,0.03 6.633,0.076 2.378,0.03 5.049,0.102 8.01,0.198 0.212,-0.198 0.345,-0.519 0.424,-0.946 0.078,-0.447 0.078,-0.874 0,-1.313 -0.079,-0.431 -0.212,-0.748 -0.424,-0.946 l -3.662,-0.454 c -1.023,-0.125 -1.847,-0.308 -2.471,-0.565 -0.628,-0.258 -1.084,-0.701 -1.407,-1.344 -0.32,-0.642 -0.532,-1.589 -0.64,-2.838 -0.104,-1.262 -0.167,-2.943 -0.15,-5.049 V 84.826 c -0.017,-0.781 0.046,-1.373 0.15,-1.751 0.107,-0.384 0.351,-0.629 0.703,-0.751 0.35,-0.109 0.898,-0.17 1.616,-0.152 h 5.492 c 1.707,0 3.092,0.258 4.194,0.761 1.099,0.506 1.98,1.208 2.65,2.122 0.674,0.916 1.224,1.985 1.646,3.219 0.433,1.238 0.841,2.579 1.207,4.057 0.183,0.243 0.508,0.378 0.976,0.441 0.474,0.046 0.963,0 1.435,-0.119 0.472,-0.122 0.793,-0.322 0.975,-0.597 -0.045,-1.327 -0.045,-2.729 0.015,-4.222 0.049,-1.496 0.142,-2.979 0.261,-4.438 0.123,-1.466 0.292,-2.809 0.475,-4.047 0.186,-1.23 0.394,-2.241 0.623,-3.03 -0.104,-0.157 -0.289,-0.292 -0.547,-0.427 -0.259,-0.137 -0.535,-0.203 -0.826,-0.216 -0.255,0 -0.485,0.013 -0.653,0.063 -0.185,0.042 -0.354,0.117 -0.533,0.208 -0.245,0.625 -0.644,1.085 -1.16,1.376 -0.518,0.288 -1.342,0.478 -2.438,0.549 -1.099,0.076 -2.656,0.106 -4.639,0.091 h -34.042 c -1.721,0 -3.075,-0.03 -4.07,-0.076 -0.991,-0.057 -1.724,-0.167 -2.214,-0.305 -0.47,-0.14 -0.809,-0.335 -0.992,-0.576 -0.162,-0.264 -0.318,-0.583 -0.409,-0.964 -0.185,-0.138 -0.38,-0.227 -0.608,-0.287 -0.217,-0.049 -0.445,-0.079 -0.674,-0.079 -0.229,0 -0.455,0.046 -0.673,0.122 -0.226,0.094 -0.426,0.195 -0.608,0.338 -0.196,1.205 -0.413,2.606 -0.641,4.206 -0.228,1.619 -0.518,3.386 -0.883,5.292 -0.365,1.922 -0.868,3.935 -1.494,6.056 0.198,0.396 0.486,0.688 0.886,0.869 0.378,0.17 0.808,0.259 1.264,0.246 0.443,-0.018 0.854,-0.109 1.235,-0.289 0.671,-1.684 1.343,-3.16 1.996,-4.44 0.656,-1.281 1.389,-2.365 2.197,-3.233 0.826,-0.883 1.801,-1.538 2.945,-1.998 1.156,-0.443 2.561,-0.672 4.208,-0.672 h 5.672 c 0.718,-0.018 1.234,0.059 1.542,0.202 0.319,0.138 0.503,0.394 0.581,0.79 0.058,0.381 0.089,0.934 0.072,1.662 v 40.351 z"
         id="path85" />
      <linearGradient
         id="linearGradient288"
         gradientUnits="userSpaceOnUse"
         x1="709.82709"
         y1="77.686501"
         x2="709.82709"
         y2="139.81931">
        <stop
           offset="0"
           style="stop-color:#F1D37D"
           id="stop280" />
        <stop
           offset="0.2737"
           style="stop-color:#FDF5B1"
           id="stop282" />
        <stop
           offset="0.4947"
           style="stop-color:#D09E4B"
           id="stop284" />
        <stop
           offset="1"
           style="stop-color:#D9AC52"
           id="stop286" />
      </linearGradient>
      <path
         style="clip-rule:evenodd;fill:url(#SVGID_8_);fill-rule:evenodd"
         inkscape:connector-curvature="0"
         d="m 684.932,114.017 c -0.015,4.974 0.52,9.18 1.602,12.608 1.082,3.422 2.807,6.119 5.167,8.074 1.651,1.327 3.434,2.36 5.354,3.111 1.909,0.741 3.938,1.28 6.071,1.585 2.149,0.288 4.374,0.44 6.694,0.423 2.487,0 4.852,-0.258 7.094,-0.748 2.259,-0.498 4.313,-1.247 6.191,-2.224 1.876,-0.979 3.48,-2.181 4.837,-3.617 1.661,-1.876 2.91,-3.96 3.745,-6.28 0.86,-2.316 1.422,-4.822 1.713,-7.473 0.291,-2.654 0.414,-5.414 0.397,-8.3 V 100.93 c 0,-1.857 0.028,-3.675 0.076,-5.415 0.045,-1.735 0.124,-3.353 0.229,-4.848 0.107,-1.492 0.259,-2.79 0.425,-3.906 0.184,-1.111 0.397,-1.965 0.642,-2.573 0.275,-0.643 0.656,-1.143 1.114,-1.514 0.471,-0.38 1.037,-0.685 1.678,-0.916 0.643,-0.226 1.356,-0.424 2.148,-0.596 l 1.648,-0.361 c 0.245,-0.257 0.396,-0.594 0.443,-1.005 0.06,-0.435 0.047,-0.827 -0.029,-1.224 -0.096,-0.396 -0.229,-0.686 -0.414,-0.886 -1.737,0.097 -3.444,0.152 -5.157,0.2 -1.704,0.062 -3.396,0.076 -5.09,0.076 -1.234,0 -2.484,-0.015 -3.753,-0.03 -1.248,-0.018 -2.574,-0.046 -3.964,-0.094 -1.387,-0.038 -2.897,-0.089 -4.545,-0.152 -0.183,0.2 -0.321,0.49 -0.413,0.886 -0.077,0.396 -0.094,0.789 -0.029,1.224 0.058,0.411 0.197,0.748 0.442,1.005 l 2.47,0.457 c 0.821,0.137 1.602,0.317 2.287,0.533 0.703,0.215 1.313,0.503 1.831,0.883 0.518,0.371 0.914,0.871 1.19,1.514 0.255,0.608 0.473,1.462 0.642,2.573 0.179,1.116 0.316,2.414 0.426,3.906 0.105,1.495 0.183,3.112 0.229,4.848 0.059,1.74 0.075,3.558 0.075,5.415 v 11.072 c 0.017,3.16 -0.228,6.102 -0.73,8.849 -0.52,2.743 -1.344,5.168 -2.519,7.244 -1.161,2.088 -2.73,3.719 -4.696,4.894 -1.97,1.178 -4.427,1.784 -7.338,1.8 -2.762,-0.016 -5.064,-0.46 -6.908,-1.317 -1.844,-0.846 -3.309,-2.023 -4.409,-3.521 -1.114,-1.495 -1.937,-3.199 -2.474,-5.119 -0.546,-1.925 -0.902,-3.95 -1.076,-6.103 -0.171,-2.135 -0.247,-4.285 -0.233,-6.453 V 91.14 c -0.014,-2.102 0.049,-3.795 0.152,-5.047 0.108,-1.251 0.321,-2.21 0.645,-2.853 0.317,-0.655 0.777,-1.128 1.397,-1.403 0.627,-0.29 1.452,-0.503 2.474,-0.675 l 2.196,-0.361 c 0.243,-0.197 0.412,-0.519 0.491,-0.929 0.074,-0.411 0.074,-0.841 0,-1.251 -0.079,-0.43 -0.248,-0.734 -0.491,-0.935 -2.196,0.097 -4.407,0.152 -6.648,0.2 -2.229,0.062 -4.473,0.076 -6.71,0.076 -2.2,0 -4.424,-0.015 -6.681,-0.076 -2.242,-0.048 -4.468,-0.104 -6.68,-0.2 -0.336,0.2 -0.548,0.505 -0.659,0.935 -0.103,0.41 -0.115,0.84 -0.027,1.251 0.09,0.41 0.258,0.731 0.504,0.929 l 2.285,0.457 c 1.024,0.183 1.849,0.411 2.472,0.688 0.628,0.284 1.083,0.745 1.403,1.373 0.322,0.626 0.533,1.568 0.644,2.8 0.103,1.238 0.164,2.919 0.149,5.021 v 22.877 z"
         id="path96" />
      <linearGradient
         id="linearGradient299"
         gradientUnits="userSpaceOnUse"
         x1="781.26862"
         y1="77.686501"
         x2="781.26862"
         y2="138.9053">
        <stop
           offset="0"
           style="stop-color:#F1D37D"
           id="stop291" />
        <stop
           offset="0.2737"
           style="stop-color:#FDF5B1"
           id="stop293" />
        <stop
           offset="0.4947"
           style="stop-color:#D09E4B"
           id="stop295" />
        <stop
           offset="1"
           style="stop-color:#D9AC52"
           id="stop297" />
      </linearGradient>
      <path
         style="clip-rule:evenodd;fill:url(#SVGID_9_);fill-rule:evenodd"
         inkscape:connector-curvature="0"
         d="m 811.597,136.404 c -0.104,-0.302 -0.289,-0.537 -0.561,-0.702 -0.703,-0.03 -1.604,-0.225 -2.686,-0.592 -1.085,-0.368 -2.242,-1.022 -3.447,-1.967 -1.447,-1.233 -2.867,-2.872 -4.284,-4.884 -1.422,-2.013 -2.911,-4.48 -4.516,-7.442 -1.586,-2.959 -3.387,-6.483 -5.382,-10.55 -0.248,-0.503 -0.337,-0.908 -0.29,-1.226 0.042,-0.308 0.306,-0.575 0.747,-0.794 1.067,-0.516 2.166,-1.138 3.296,-1.889 1.125,-0.731 2.163,-1.646 3.136,-2.714 0.961,-1.053 1.742,-2.333 2.335,-3.843 0.61,-1.495 0.918,-3.252 0.933,-5.277 0,-2.929 -0.683,-5.536 -2.028,-7.808 -1.358,-2.257 -3.371,-4.179 -6.023,-5.734 -1.174,-0.701 -2.653,-1.3 -4.47,-1.784 -1.803,-0.502 -3.848,-0.87 -6.133,-1.127 -2.287,-0.262 -4.728,-0.386 -7.337,-0.386 -2.882,0 -5.625,0.033 -8.22,0.114 -2.591,0.071 -5.078,0.162 -7.475,0.3 -2.377,0.124 -4.71,0.262 -6.997,0.411 -0.365,0.172 -0.61,0.489 -0.733,0.93 -0.137,0.443 -0.151,0.885 -0.047,1.344 0.093,0.442 0.292,0.747 0.594,0.93 l 2.474,0.363 c 0.946,0.123 1.706,0.322 2.257,0.613 0.55,0.305 0.944,0.808 1.206,1.509 0.243,0.718 0.411,1.754 0.471,3.124 0.077,1.376 0.11,3.19 0.094,5.463 v 32.391 c 0.017,2.092 -0.045,3.736 -0.153,4.973 -0.108,1.237 -0.32,2.183 -0.642,2.808 -0.32,0.627 -0.777,1.083 -1.402,1.357 -0.625,0.271 -1.448,0.49 -2.471,0.658 l -2.47,0.454 c -0.244,0.168 -0.414,0.473 -0.49,0.916 -0.074,0.427 -0.074,0.868 0,1.311 0.076,0.44 0.246,0.781 0.49,0.979 1.585,-0.062 3.091,-0.109 4.562,-0.155 1.461,-0.043 2.91,-0.076 4.359,-0.089 1.449,-0.018 2.929,-0.03 4.439,-0.03 2.178,0 4.358,0.03 6.559,0.076 2.177,0.03 4.483,0.102 6.892,0.198 0.212,-0.198 0.35,-0.539 0.424,-0.979 0.078,-0.442 0.078,-0.884 0,-1.311 -0.074,-0.443 -0.212,-0.748 -0.424,-0.916 l -2.471,-0.454 c -1.023,-0.168 -1.846,-0.387 -2.471,-0.658 -0.628,-0.274 -1.084,-0.73 -1.405,-1.357 -0.319,-0.625 -0.531,-1.571 -0.643,-2.808 -0.104,-1.236 -0.165,-2.881 -0.148,-4.973 v -11.25 c -0.017,-0.609 0.032,-1.056 0.169,-1.345 0.121,-0.29 0.424,-0.473 0.914,-0.562 0.485,-0.08 1.249,-0.126 2.301,-0.109 1.132,-0.017 2.092,0.198 2.868,0.671 0.777,0.475 1.451,1.312 1.986,2.528 1.033,2.413 2.113,4.779 3.262,7.097 1.128,2.318 2.424,4.679 3.872,7.095 1.325,2.188 2.838,3.99 4.532,5.409 1.678,1.421 3.602,2.485 5.779,3.175 2.164,0.686 4.653,1.019 7.444,1.019 0.959,0 1.888,-0.03 2.805,-0.076 0.916,-0.046 1.767,-0.122 2.533,-0.244 0.759,-0.119 1.385,-0.292 1.89,-0.507 0.149,-0.191 0.259,-0.439 0.288,-0.758 0.048,-0.303 0.018,-0.611 -0.092,-0.916 z m -25.132,-36.342 c -0.338,1.281 -0.75,2.351 -1.255,3.203 -0.486,0.868 -1.004,1.538 -1.537,2.059 -0.84,0.87 -1.816,1.506 -2.899,1.939 -1.081,0.411 -2.439,0.625 -4.057,0.625 -1.343,0 -2.394,-0.033 -3.153,-0.093 -0.782,-0.078 -1.346,-0.212 -1.711,-0.443 -0.35,-0.229 -0.579,-0.579 -0.686,-1.052 -0.09,-0.471 -0.139,-1.099 -0.122,-1.894 V 86.565 c -0.017,-1.452 0.045,-2.508 0.184,-3.17 0.15,-0.655 0.5,-1.085 1.065,-1.27 0.564,-0.18 1.448,-0.259 2.688,-0.226 2.395,0.013 4.48,0.578 6.281,1.675 1.785,1.111 3.185,2.667 4.18,4.698 1.008,2.013 1.508,4.409 1.525,7.168 -0.018,1.789 -0.183,3.325 -0.503,4.622 z"
         id="path107" />
      <linearGradient
         id="linearGradient310"
         gradientUnits="userSpaceOnUse"
         x1="841.74219"
         y1="77.686501"
         x2="841.74219"
         y2="138.6338">
        <stop
           offset="0"
           style="stop-color:#F1D37D"
           id="stop302" />
        <stop
           offset="0.2737"
           style="stop-color:#FDF5B1"
           id="stop304" />
        <stop
           offset="0.4947"
           style="stop-color:#D09E4B"
           id="stop306" />
        <stop
           offset="1"
           style="stop-color:#D9AC52"
           id="stop308" />
      </linearGradient>
      <path
         style="clip-rule:evenodd;fill:url(#SVGID_10_);fill-rule:evenodd"
         inkscape:connector-curvature="0"
         d="m 837.76,85.742 c -0.015,-1.118 0.014,-1.919 0.104,-2.438 0.091,-0.507 0.367,-0.825 0.796,-0.96 0.424,-0.143 1.125,-0.189 2.119,-0.172 h 7.318 c 2.229,0 4.072,0.258 5.522,0.761 1.45,0.506 2.596,1.191 3.449,2.074 0.607,0.659 1.202,1.622 1.81,2.899 0.598,1.269 1.164,2.718 1.665,4.332 0.323,0.277 0.732,0.444 1.205,0.49 0.475,0.059 0.93,0.013 1.345,-0.14 0.427,-0.135 0.7,-0.381 0.839,-0.714 -0.124,-1.561 -0.245,-3.081 -0.369,-4.594 -0.12,-1.522 -0.239,-2.945 -0.365,-4.252 -0.119,-1.314 -0.212,-2.442 -0.29,-3.37 -0.089,-0.933 -0.136,-1.587 -0.167,-1.973 -0.411,0.063 -1.218,0.114 -2.407,0.152 -1.193,0.048 -2.624,0.076 -4.335,0.094 -1.704,0.016 -3.555,0.03 -5.521,0.03 H 831.08 c -2.199,0 -4.408,-0.03 -6.62,-0.076 -2.211,-0.048 -4.406,-0.104 -6.561,-0.2 -0.303,0.2 -0.518,0.523 -0.639,0.951 -0.121,0.437 -0.139,0.866 -0.06,1.293 0.076,0.44 0.245,0.762 0.518,0.964 l 2.289,0.452 c 1.021,0.186 1.848,0.411 2.472,0.69 0.622,0.273 1.08,0.73 1.397,1.34 0.323,0.625 0.538,1.541 0.641,2.76 0.109,1.208 0.169,2.853 0.154,4.911 v 34.13 c 0.015,2.092 -0.045,3.736 -0.154,4.958 -0.103,1.238 -0.317,2.151 -0.641,2.761 -0.317,0.625 -0.775,1.052 -1.397,1.313 -0.624,0.246 -1.45,0.444 -2.472,0.579 l -4.301,0.64 c -0.248,0.168 -0.415,0.473 -0.488,0.916 -0.077,0.427 -0.077,0.868 0,1.311 0.073,0.44 0.24,0.781 0.488,0.979 2.271,-0.062 4.33,-0.109 6.161,-0.155 1.829,-0.043 3.523,-0.076 5.063,-0.089 1.557,-0.018 3.065,-0.03 4.515,-0.03 h 11.897 c 1.891,0 3.811,0 5.779,0.013 1.979,0.018 3.905,0.03 5.778,0.044 1.893,0.032 3.646,0.063 5.293,0.096 1.635,0.025 3.068,0.073 4.287,0.122 0.32,-0.646 0.688,-1.528 1.082,-2.657 0.412,-1.146 0.791,-2.409 1.191,-3.813 0.379,-1.389 0.715,-2.806 0.989,-4.222 0.292,-1.42 0.488,-2.747 0.581,-3.952 -0.141,-0.366 -0.443,-0.645 -0.885,-0.823 -0.428,-0.199 -0.902,-0.261 -1.37,-0.215 -0.488,0.063 -0.872,0.244 -1.133,0.581 -0.991,2.059 -1.95,3.75 -2.837,5.077 -0.898,1.327 -1.797,2.362 -2.714,3.127 -0.898,0.765 -1.876,1.312 -2.897,1.645 -1.027,0.358 -2.152,0.566 -3.405,0.659 -1.247,0.079 -2.665,0.125 -4.25,0.109 -1.665,0 -3.035,-0.05 -4.148,-0.143 -1.114,-0.09 -2.016,-0.24 -2.713,-0.423 -0.707,-0.203 -1.255,-0.441 -1.679,-0.752 -0.43,-0.302 -0.779,-0.651 -1.072,-1.065 -0.548,-0.777 -0.925,-1.894 -1.141,-3.353 -0.23,-1.45 -0.335,-3.237 -0.32,-5.339 v -10.89 c -0.015,-0.9 0.028,-1.559 0.119,-1.952 0.091,-0.413 0.307,-0.654 0.672,-0.761 0.366,-0.089 0.963,-0.143 1.772,-0.127 h 6.311 c 1.571,-0.016 2.791,0.094 3.675,0.354 0.869,0.258 1.542,0.744 2.002,1.488 0.438,0.738 0.82,1.83 1.099,3.287 l 0.453,2.279 c 0.245,0.279 0.595,0.447 1.071,0.523 0.47,0.076 0.926,0.063 1.373,-0.049 0.455,-0.086 0.779,-0.285 0.946,-0.563 -0.091,-1.459 -0.155,-3.018 -0.2,-4.646 -0.045,-1.621 -0.076,-3.313 -0.076,-5.051 0,-1.74 0.031,-3.435 0.076,-5.063 0.045,-1.62 0.109,-3.173 0.2,-4.636 -0.167,-0.273 -0.491,-0.456 -0.933,-0.549 -0.461,-0.093 -0.917,-0.11 -1.387,-0.034 -0.477,0.081 -0.826,0.246 -1.071,0.49 l -0.453,2.286 c -0.278,1.45 -0.66,2.536 -1.099,3.268 -0.46,0.715 -1.133,1.2 -2.002,1.436 -0.884,0.238 -2.104,0.346 -3.675,0.331 h -6.311 c -0.81,0.015 -1.406,-0.029 -1.772,-0.138 -0.365,-0.104 -0.581,-0.365 -0.672,-0.759 -0.091,-0.384 -0.134,-1.01 -0.119,-1.848 V 85.742 Z"
         id="path118" />
      <linearGradient
         id="linearGradient321"
         gradientUnits="userSpaceOnUse"
         x1="223.813"
         y1="77.686501"
         x2="223.813"
         y2="138.6338">
        <stop
           offset="0"
           style="stop-color:#F1D37D"
           id="stop313" />
        <stop
           offset="0.2737"
           style="stop-color:#FDF5B1"
           id="stop315" />
        <stop
           offset="0.4947"
           style="stop-color:#D09E4B"
           id="stop317" />
        <stop
           offset="1"
           style="stop-color:#D9AC52"
           id="stop319" />
      </linearGradient>
      <path
         style="clip-rule:evenodd;fill:url(#SVGID_11_);fill-rule:evenodd"
         inkscape:connector-curvature="0"
         d="m 219.237,91.14 c -0.013,-2.102 0.046,-3.795 0.153,-5.047 0.107,-1.251 0.318,-2.197 0.641,-2.853 0.32,-0.643 0.781,-1.099 1.404,-1.373 0.625,-0.259 1.447,-0.473 2.469,-0.609 l 2.381,-0.363 c 0.242,-0.202 0.412,-0.523 0.485,-0.964 0.076,-0.427 0.076,-0.856 0,-1.293 -0.073,-0.428 -0.243,-0.751 -0.485,-0.951 -2.288,0.097 -4.575,0.152 -6.835,0.2 -2.269,0.062 -4.514,0.076 -6.708,0.076 -4.393,0 -8.97,-0.091 -13.726,-0.276 -0.366,0.2 -0.61,0.523 -0.733,0.951 -0.136,0.437 -0.151,0.866 -0.046,1.293 0.09,0.44 0.29,0.762 0.597,0.964 l 2.651,0.363 c 1.028,0.122 1.849,0.305 2.472,0.579 0.624,0.262 1.081,0.718 1.401,1.37 0.32,0.66 0.535,1.602 0.641,2.869 0.108,1.269 0.166,2.962 0.152,5.063 v 34.038 c 0.014,2.105 -0.043,3.787 -0.152,5.049 -0.105,1.249 -0.32,2.196 -0.641,2.838 -0.32,0.643 -0.778,1.086 -1.401,1.344 -0.623,0.258 -1.444,0.44 -2.472,0.565 l -3.477,0.454 c -0.244,0.198 -0.381,0.516 -0.441,0.946 -0.044,0.439 0,0.866 0.121,1.298 0.123,0.443 0.32,0.764 0.595,0.962 2.824,-0.097 5.415,-0.168 7.78,-0.218 2.362,-0.044 4.588,-0.057 6.679,-0.057 h 12.262 c 1.889,0 3.811,0 5.782,0.013 1.962,0.018 3.901,0.03 5.778,0.044 1.893,0.032 3.645,0.063 5.28,0.096 1.646,0.025 3.082,0.073 4.301,0.122 0.316,-0.646 0.685,-1.541 1.095,-2.69 0.399,-1.155 0.792,-2.455 1.177,-3.871 0.39,-1.417 0.729,-2.851 1.037,-4.285 0.288,-1.449 0.5,-2.773 0.622,-3.975 -0.228,-0.374 -0.578,-0.646 -1.02,-0.845 -0.458,-0.181 -0.915,-0.262 -1.374,-0.212 -0.456,0.031 -0.823,0.196 -1.08,0.503 -1.071,2.104 -2.062,3.839 -2.979,5.216 -0.897,1.361 -1.798,2.425 -2.697,3.204 -0.884,0.776 -1.832,1.343 -2.836,1.69 -1.008,0.351 -2.154,0.579 -3.404,0.672 -1.268,0.079 -2.732,0.125 -4.376,0.109 -1.661,0 -3.035,-0.05 -4.133,-0.143 -1.096,-0.09 -1.998,-0.228 -2.685,-0.423 -0.687,-0.19 -1.235,-0.432 -1.647,-0.703 -0.411,-0.294 -0.765,-0.624 -1.053,-1.021 -0.579,-0.733 -0.989,-1.83 -1.216,-3.28 -0.231,-1.466 -0.353,-3.261 -0.339,-5.414 z"
         id="path129" />
    </g>
  </g>
</svg>
