<?xml version="1.0" encoding="utf-8"?>
<!-- Generator: Adobe Illustrator 16.0.0, SVG Export Plug-In . SVG Version: 6.00 Build 0)  -->
<!DOCTYPE svg PUBLIC "-//W3C//DTD SVG 1.1//EN" "http://www.w3.org/Graphics/SVG/1.1/DTD/svg11.dtd">
<svg version="1.1" id="Layer_1" xmlns="http://www.w3.org/2000/svg" xmlns:xlink="http://www.w3.org/1999/xlink" x="0px" y="0px"
	 width="1133.86px" height="1417.32px" viewBox="0 0 1133.86 1417.32" enable-background="new 0 0 1133.86 1417.32"
	 xml:space="preserve">
<g>
	<g>
		<path d="M1133.86,708.66l-85.918-128.895l9.965-154.57l-138.859-68.652l-68.652-138.859l-154.57,9.965L566.93,141.73
			l-128.861,85.918l-154.604-9.965l-68.651,138.859L75.986,425.195l9.966,154.588L0,708.66l85.952,128.861l-9.966,154.604
			l138.827,68.652l68.651,138.86l154.604-9.966l128.861,85.919l128.895-85.919l154.57,9.966l68.688-138.86l138.826-68.652
			l-9.965-154.604L1133.86,708.66z M898.145,1018.424l-14.324,7.093l-7.094,14.326l-54.705,110.624l-123.15-7.959l-15.951-1.038
			l-13.287,8.894l-102.704,68.443l-102.665-68.443l-13.287-8.894l-15.952,1.038l-123.149,7.959l-54.707-110.624l-7.06-14.326
			l-14.326-7.093L125.159,963.75l7.924-123.186l1.039-15.918l-8.858-13.287L56.784,708.66l68.479-102.683l8.858-13.288
			l-1.039-15.951l-7.924-123.15l110.625-54.706l14.326-7.076l7.06-14.326l54.705-110.626l123.149,7.941l15.952,1.038l13.287-8.876
			l102.667-68.443l102.702,68.443l13.287,8.876l15.951-1.038l123.15-7.941l54.707,110.624l7.061,14.326l14.324,7.075l110.625,54.707
			l-7.924,123.15l-1.039,15.934l8.859,13.306l68.479,102.685l-68.479,102.701l-8.859,13.287l1.039,15.918l7.924,123.186
			L898.145,1018.424z"/>
	</g>
</g>
<g>
	<g>
		<polygon points="363.848,616.824 363.848,753.714 279.762,616.824 234.122,616.824 234.122,821.187 277.479,821.187 
			277.479,683.972 362.151,821.187 406.928,821.187 406.928,616.824 		"/>
	</g>
</g>
<g>
	<g>
		<polygon points="507.068,783.575 507.068,733.348 606.93,733.348 606.93,698.037 507.068,698.037 507.068,653.555 615.86,653.555 
			615.86,616.824 462.568,616.824 462.568,821.187 617.866,821.187 617.866,783.575 		"/>
	</g>
</g>
<g>
	<g>
		<polygon points="873.268,616.824 839.426,757.449 804.098,616.824 761.917,616.824 726.034,755.719 693.334,616.824 
			648.247,616.824 702.504,821.187 748.145,821.187 782.575,681.686 817.592,821.187 862.368,821.187 917.491,616.824 		"/>
	</g>
</g>
</svg>
