<?xml version="1.0" encoding="UTF-8" standalone="no"?>
<svg
   xmlns:dc="http://purl.org/dc/elements/1.1/"
   xmlns:cc="http://creativecommons.org/ns#"
   xmlns:rdf="http://www.w3.org/1999/02/22-rdf-syntax-ns#"
   xmlns:svg="http://www.w3.org/2000/svg"
   xmlns="http://www.w3.org/2000/svg"
   xmlns:sodipodi="http://sodipodi.sourceforge.net/DTD/sodipodi-0.dtd"
   xmlns:inkscape="http://www.inkscape.org/namespaces/inkscape"
   enable-background="new 0 0 24 24"
   height="18.275"
   id="Layer_1"
   version="1.1"
   viewBox="0 0 23.882999 18.275"
   width="23.882999"
   xml:space="preserve"
   sodipodi:docname="twitter.svg"
   inkscape:version="0.92.1 r15371"><metadata
     id="metadata23"><rdf:RDF><cc:Work
         rdf:about=""><dc:format>image/svg+xml</dc:format><dc:type
           rdf:resource="http://purl.org/dc/dcmitype/StillImage" /><dc:title></dc:title></cc:Work></rdf:RDF></metadata><defs
     id="defs21" /><sodipodi:namedview
     pagecolor="#ffffff"
     bordercolor="#666666"
     borderopacity="1"
     objecttolerance="10"
     gridtolerance="10"
     guidetolerance="10"
     inkscape:pageopacity="0"
     inkscape:pageshadow="2"
     inkscape:window-width="1366"
     inkscape:window-height="705"
     id="namedview19"
     showgrid="false"
     inkscape:zoom="46.048828"
     inkscape:cx="11.561969"
     inkscape:cy="20.429361"
     inkscape:window-x="-8"
     inkscape:window-y="-8"
     inkscape:window-maximized="1"
     inkscape:current-layer="Layer_1" /><g
     id="g16"
     transform="translate(-0.058,-2.862)"><g
       id="g14"><g
         id="g12"><path
           d="m 8.794,21.137 c -2.173,0 -4.325,-0.602 -6.225,-1.738 l -2.511,-1.506 2.928,0.05 c 0.057,0.004 0.132,0.007 0.248,0.007 0.441,0 1.856,-0.062 3.42,-0.751 C 5.466,16.608 4.547,15.57 4.12,14.302 L 3.658,12.93 3.679,12.934 C 3.1,12.154 2.755,11.214 2.701,10.226 L 2.633,8.956 3.124,9.17 C 2.662,8.116 2.358,6.519 3.36,4.692 L 3.937,3.646 4.666,4.591 c 1.66,2.146 4.117,3.522 6.793,3.819 0.004,-2.376 1.813,-4.83 4.837,-4.83 1.189,0 2.358,0.451 3.239,1.245 0.98,-0.271 1.878,-0.817 1.889,-0.823 l 1.852,-1.14 -0.7,2.06 c -0.054,0.156 -0.115,0.31 -0.184,0.458 l 1.549,-0.757 -0.933,2.005 c -0.398,0.857 -1.055,1.591 -1.86,2.086 0.111,2.893 -1.11,6.107 -3.222,8.445 -1.621,1.798 -4.509,3.947 -9.057,3.976 z m -5.95,-2.448 0.111,0.066 c 1.781,1.067 3.8,1.632 5.836,1.632 h 0.073 c 4.275,-0.028 6.985,-2.043 8.507,-3.729 2.038,-2.257 3.193,-5.371 3.018,-8.128 L 20.373,8.292 20.582,8.178 C 21.344,7.761 21.964,7.099 22.33,6.314 L 22.37,6.225 22.161,6.329 C 21.945,6.423 21.753,6.496 21.555,6.56 l -1.228,0.402 0.822,-0.996 c 0.316,-0.384 0.558,-0.815 0.717,-1.284 l 0.03,-0.09 -0.08,0.049 c -0.009,0.006 -1.12,0.687 -2.302,0.964 l -0.2,0.047 -0.148,-0.145 C 18.409,4.759 17.363,4.329 16.297,4.329 c -2.56,0 -4.088,2.078 -4.088,4.088 0,0.049 0.012,0.202 0.029,0.369 L 12.28,9.226 11.84,9.197 C 8.785,8.991 5.955,7.479 4.074,5.05 L 4.042,5.008 4.017,5.054 C 2.817,7.238 3.809,9.042 4.29,9.717 L 4.945,10.634 3.872,10.291 C 3.745,10.251 3.62,10.202 3.498,10.149 l -0.053,-0.023 0.003,0.058 c 0.068,1.243 0.677,2.394 1.67,3.156 l 1.466,1.126 -1.774,-0.464 0.021,0.061 c 0.441,1.314 1.506,2.336 2.847,2.736 l 0.844,0.252 -0.767,0.433 c -1.995,1.126 -3.964,1.214 -4.52,1.214 -0.133,0 -0.219,-0.003 -0.271,-0.005 z"
           id="path10"
           inkscape:connector-curvature="0" /></g></g></g></svg>