<?xml version="1.0" encoding="UTF-8" standalone="no"?>
<!-- Generator: Adobe Illustrator 16.0.0, SVG Export Plug-In . SVG Version: 6.00 Build 0)  -->

<svg
   xmlns:dc="http://purl.org/dc/elements/1.1/"
   xmlns:cc="http://creativecommons.org/ns#"
   xmlns:rdf="http://www.w3.org/1999/02/22-rdf-syntax-ns#"
   xmlns:svg="http://www.w3.org/2000/svg"
   xmlns="http://www.w3.org/2000/svg"
   xmlns:sodipodi="http://sodipodi.sourceforge.net/DTD/sodipodi-0.dtd"
   xmlns:inkscape="http://www.inkscape.org/namespaces/inkscape"
   version="1.1"
   id="Capa_1"
   x="0px"
   y="0px"
   width="4209.6274"
   height="2473.9041"
   viewBox="0 0 4209.6275 2473.9041"
   enable-background="new 0 0 16382.839 7086.609"
   xml:space="preserve"
   sodipodi:docname="vk.svg"
   inkscape:version="0.92.1 r15371"><metadata
   id="metadata3702"><rdf:RDF><cc:Work
       rdf:about=""><dc:format>image/svg+xml</dc:format><dc:type
         rdf:resource="http://purl.org/dc/dcmitype/StillImage" /><dc:title></dc:title></cc:Work></rdf:RDF></metadata><defs
   id="defs3700" /><sodipodi:namedview
   pagecolor="#ffffff"
   bordercolor="#666666"
   borderopacity="1"
   objecttolerance="10"
   gridtolerance="10"
   guidetolerance="10"
   inkscape:pageopacity="0"
   inkscape:pageshadow="2"
   inkscape:window-width="1366"
   inkscape:window-height="705"
   id="namedview3698"
   showgrid="false"
   inkscape:zoom="0.047686619"
   inkscape:cx="3629.1494"
   inkscape:cy="366.55514"
   inkscape:window-x="-8"
   inkscape:window-y="-8"
   inkscape:window-maximized="1"
   inkscape:current-layer="Capa_1" />
<g
   id="g3695"
   transform="translate(-4562.2701,-1435.9555)">
	<g
   id="g3693">
		<path
   stroke-miterlimit="10"
   d="m 8649.521,3576.281 c -10.852,-18.17 -77.978,-164.031 -400.994,-463.83 -338.156,-313.931 -292.73,-262.954 114.57,-805.772 248.065,-330.585 347.241,-532.469 316.202,-618.776 -29.525,-82.268 -211.98,-60.565 -211.98,-60.565 l -606.663,3.534 c 0,0 -44.919,-6.057 -78.482,13.879 -32.554,19.683 -53.498,65.107 -53.498,65.107 0,0 -96.149,255.89 -224.346,473.419 -270.273,459.035 -378.534,483.262 -422.696,454.746 -102.708,-66.37 -76.968,-266.992 -76.968,-409.321 0,-444.903 67.379,-630.384 -131.478,-678.332 -66.118,-15.899 -114.57,-26.498 -283.396,-28.263 -216.522,-2.272 -399.984,0.756 -503.702,51.48 -69.146,33.816 -122.393,109.27 -89.838,113.56 40.125,5.299 130.973,24.479 179.173,90.091 62.331,84.539 60.06,274.816 60.06,274.816 0,0 35.835,523.638 -83.529,588.746 -82.016,44.667 -194.314,-46.434 -435.314,-463.073 -123.402,-213.241 -216.774,-449.194 -216.774,-449.194 0,0 -17.918,-43.908 -49.967,-67.378 -38.862,-28.517 -93.372,-37.601 -93.372,-37.601 l -576.885,3.533 c 0,0 -86.558,2.523 -118.354,40.124 -28.264,33.564 -2.271,102.709 -2.271,102.709 0,0 451.717,1056.613 962.989,1589.336 469.13,488.309 1001.6,456.258 1001.6,456.258 h 241.252 c 0,0 72.932,-8.075 110.027,-48.199 34.32,-36.844 33.058,-105.989 33.058,-105.989 0,0 -4.795,-323.773 145.61,-371.468 148.133,-46.938 338.409,312.921 540.04,451.464 152.424,104.729 268.256,81.764 268.256,81.764 l 539.285,-7.571 c 0,0 282.134,-17.413 148.385,-239.234 z"
   id="path3691"
   inkscape:connector-curvature="0"
   style="fill:none;stroke:#000000;stroke-width:170.07870483;stroke-miterlimit:10" />
	</g>
</g>
</svg>